<?xml version="1.0" encoding="utf-8"?>
<!-- Generator: Adobe Illustrator 27.8.1, SVG Export Plug-In . SVG Version: 6.00 Build 0)  -->
<svg version="1.1" id="Calque_1" xmlns="http://www.w3.org/2000/svg" xmlns:xlink="http://www.w3.org/1999/xlink" x="0px" y="0px"
	 viewBox="0 0 50 50" style="enable-background:new 0 0 50 50;" xml:space="preserve">
<style type="text/css">
	.st0{fill:#020203;}
	.st1{fill:#E5222A;}
	.st2{fill:#480E1C;}
	.st3{opacity:0.3;}
	.st4{fill:#64140F;}
	.st5{fill:#FBBB10;}
	.st6{opacity:0.55;}
	.st7{fill:#FFFFFF;}
	.st8{fill:#F1861C;}
	.st9{fill:#FBC102;}
	.st10{fill:#E73A1E;}
	.st11{fill:#FDD8AB;}
	.st12{fill:#FFFFFE;}
	.st13{fill:#68B657;}
	.st14{opacity:0.2;}
</style>
<g>
	<g>
		<path class="st0" d="M2,9.67C1.93,9.63,1.81,9.62,1.66,9.62L1.62,9.64C1.43,9.68,1.29,9.56,1.19,9.3C1.1,9.08,1.05,8.8,1.05,8.44
			c0-0.34,0.04-0.61,0.13-0.83c0.1-0.25,0.25-0.34,0.44-0.27C2.08,7.42,2.6,7.46,3.18,7.46c0.39,0,1.11-0.03,2.16-0.08l0.74-0.03
			c1.28,0,2.26,0.53,2.94,1.6c0.68,1.05,1.02,2.53,1.02,4.45c0,2.13-0.34,3.75-1.02,4.85c-0.66,1.08-1.64,1.62-2.94,1.62H3.96v4.31
			c0,0.3,0.08,0.48,0.23,0.54c0.1,0.05,0.37,0.05,0.8,0l0.57-0.03C5.8,24.63,6,24.73,6.16,24.98c0.13,0.23,0.19,0.52,0.19,0.85
			c0,0.34-0.06,0.61-0.19,0.83C6,26.91,5.8,27.01,5.55,26.98C4.88,26.92,4.2,26.9,3.5,26.9c-0.7,0-1.32,0.03-1.88,0.08
			c-0.19,0.04-0.34-0.07-0.44-0.32c-0.09-0.23-0.13-0.52-0.13-0.88c0-0.34,0.04-0.61,0.13-0.83c0.1-0.25,0.25-0.34,0.44-0.27
			c0.11,0.07,0.22,0.09,0.32,0.05c0.18-0.04,0.27-0.22,0.27-0.56V10.1C2.21,9.86,2.14,9.72,2,9.67z M3.96,17.58h1.92
			c0.67,0,1.2-0.25,1.57-0.75c0.52-0.67,0.78-1.82,0.78-3.44c0-1.42-0.26-2.44-0.78-3.06C7.05,9.87,6.53,9.64,5.87,9.64H3.96V17.58z
			"/>
		<path class="st0" d="M14.41,14.94c-0.2-0.04-0.58-0.04-1.12,0l-0.11,0.03c-0.24,0.04-0.43-0.07-0.57-0.32
			c-0.13-0.21-0.19-0.49-0.19-0.83c0-0.35,0.06-0.64,0.19-0.85c0.14-0.25,0.33-0.35,0.57-0.29c0.44,0.07,0.97,0.11,1.59,0.11
			c0.64,0.02,1.28-0.02,1.9-0.11v11.37c0,0.43,0.2,0.67,0.59,0.72c0.28,0.05,0.79,0.01,1.54-0.13c0.28-0.07,0.5,0.01,0.66,0.24
			c0.15,0.21,0.23,0.5,0.23,0.85c0,0.34-0.08,0.62-0.23,0.85c-0.16,0.25-0.39,0.35-0.66,0.32c-1.15-0.04-2.28-0.05-3.38-0.05
			c-1.09,0-2.07,0.02-2.94,0.05c-0.24,0.04-0.43-0.07-0.57-0.32c-0.11-0.21-0.17-0.49-0.17-0.83c0-0.34,0.06-0.62,0.17-0.85
			c0.14-0.25,0.33-0.35,0.57-0.29l0.32,0.03c0.75,0.09,1.25,0.12,1.5,0.08c0.42-0.05,0.63-0.27,0.63-0.67v-8.68
			C14.92,15.14,14.75,14.99,14.41,14.94z M16.4,9.8"/>
		<path class="st0" d="M26.06,9.75c-0.04-0.05-0.15-0.09-0.32-0.11l-0.17-0.03c-0.38-0.04-0.81-0.06-1.29-0.08
			c-0.61,0-1.08,0.03-1.42,0.08c-0.24,0.04-0.39,0.24-0.44,0.61c-0.05,0.43-0.05,1.51,0,3.25c0,0.28-0.09,0.52-0.28,0.72
			c-0.16,0.16-0.37,0.24-0.61,0.24c-0.25,0-0.46-0.08-0.63-0.24c-0.18-0.2-0.25-0.43-0.21-0.72c0.06-0.85,0.09-1.84,0.09-2.96
			c-0.01-1.05-0.04-1.84-0.08-2.37c-0.04-0.41,0.05-0.67,0.27-0.77c0.23-0.12,0.66-0.14,1.31-0.05h0.09
			c0.97,0.09,1.71,0.14,2.2,0.16c0.78,0,1.72-0.05,2.81-0.16c0.68-0.09,1.13-0.02,1.35,0.21c0.15,0.16,0.11,0.56-0.11,1.2
			l-0.49,1.33l-5.1,13.98c-0.2,0.48,0.16,0.75,1.08,0.8c0.66,0.04,1.57-0.03,2.75-0.19c0.29-0.07,0.48-0.34,0.57-0.8
			c0.11-0.57,0.13-1.7,0.04-3.41c-0.04-0.28,0.04-0.51,0.25-0.69c0.18-0.14,0.4-0.21,0.66-0.21c0.28,0,0.51,0.07,0.68,0.21
			c0.2,0.18,0.3,0.41,0.28,0.69c-0.06,0.92-0.11,1.85-0.13,2.77c-0.03,0.92-0.03,1.66,0,2.21c0.03,0.66-0.06,1.09-0.27,1.3
			c-0.19,0.2-0.56,0.27-1.12,0.21l-0.25-0.03c-1.33-0.05-2.3-0.09-2.9-0.11c-0.96,0-1.93,0.04-2.9,0.13
			c-0.58,0.04-0.94-0.25-1.08-0.85c-0.13-0.57-0.02-1.22,0.32-1.97l5.03-13.95C26.1,9.94,26.11,9.8,26.06,9.75z"/>
		<path class="st0" d="M38.77,19.76c0.2,0.18,0.3,0.41,0.28,0.69c-0.06,0.92-0.11,1.85-0.13,2.77c-0.03,0.92-0.03,1.66,0,2.21
			c0.03,0.66-0.06,1.09-0.27,1.3c-0.19,0.2-0.56,0.27-1.12,0.21l-0.25-0.03c-1.33-0.05-2.3-0.09-2.9-0.11
			c-0.96,0-1.93,0.04-2.9,0.13c-0.58,0.04-0.94-0.25-1.08-0.85c-0.13-0.57-0.02-1.22,0.32-1.97l5.03-13.95
			c0.06-0.23,0.07-0.37,0.02-0.43c-0.04-0.05-0.15-0.09-0.32-0.11l-0.17-0.03c-0.38-0.04-0.81-0.06-1.29-0.08
			c-0.61,0-1.08,0.03-1.42,0.08c-0.24,0.04-0.39,0.24-0.44,0.61c-0.05,0.43-0.05,1.51,0,3.25c0,0.28-0.09,0.52-0.28,0.72
			c-0.16,0.16-0.37,0.24-0.61,0.24c-0.25,0-0.46-0.08-0.63-0.24c-0.18-0.2-0.25-0.43-0.21-0.72c0.06-0.85,0.09-1.84,0.09-2.96
			c-0.01-1.05-0.04-1.84-0.08-2.37c-0.04-0.41,0.05-0.67,0.27-0.77c0.23-0.12,0.66-0.14,1.31-0.05h0.09
			c0.97,0.09,1.71,0.14,2.2,0.16c0.78,0,1.72-0.05,2.81-0.16c0.68-0.09,1.13-0.02,1.35,0.21c0.15,0.16,0.11,0.56-0.11,1.2
			l-0.49,1.33l-5.1,13.98c-0.2,0.48,0.16,0.75,1.08,0.8c0.66,0.04,1.57-0.03,2.75-0.19c0.29-0.07,0.48-0.34,0.57-0.8"/>
	</g>
	<g>
		<g>
			<ellipse transform="matrix(0.9982 -0.06 0.06 0.9982 -0.2918 0.9085)" class="st1" cx="14.99" cy="5.32" rx="3.3" ry="4.81"/>
		</g>
		<g>
			<path class="st2" d="M15.15,10.63c-0.42,0-0.83-0.1-1.24-0.31c-0.93-0.47-1.7-1.44-2.15-2.71c-0.46-1.28-0.55-2.71-0.27-4.05
				c0.29-1.34,0.92-2.42,1.79-3.04c0.87-0.61,1.87-0.69,2.81-0.21c0.93,0.47,1.7,1.44,2.15,2.71c0.46,1.28,0.55,2.71,0.27,4.05
				c-0.29,1.34-0.92,2.42-1.79,3.04C16.22,10.46,15.69,10.63,15.15,10.63z M16.38,9.2l0.16,0.45L16.38,9.2
				c0.69-0.49,1.2-1.35,1.42-2.42c0.23-1.08,0.15-2.26-0.22-3.3c-0.37-1.04-1-1.83-1.76-2.22c-0.75-0.38-1.54-0.32-2.23,0.16
				c-0.69,0.49-1.2,1.35-1.42,2.42c-0.23,1.08-0.15,2.26,0.22,3.3c0.37,1.04,1,1.83,1.76,2.22C14.9,9.75,15.69,9.69,16.38,9.2z"/>
		</g>
	</g>
	<g>
		<g class="st3">
			<g>
				<g>
					<path class="st4" d="M36.07,23.51c1.84,1.92,4.04,2.93,6.35,2.93c2.31,0,4.51-1.01,6.35-2.93c0.44-0.46,0.6-1.28,0.38-1.99
						c-0.14-0.45-0.42-0.79-0.75-0.93c-0.17-0.07-0.34-0.08-0.51-0.05l-1.03-2.68c0-0.04,0.01-0.08,0.01-0.12
						c0.02-0.23,0.05-0.47,0.05-0.72c0-0.12,0-0.25-0.01-0.37c-0.01-0.06-0.01-0.13-0.02-0.19c-0.01-0.06-0.02-0.13-0.04-0.19
						c-0.02-0.06-0.04-0.13-0.06-0.19c-0.03-0.06-0.05-0.12-0.09-0.18c-0.07-0.11-0.17-0.21-0.28-0.24
						c-0.06-0.02-0.11-0.02-0.17-0.02c-0.05,0.01-0.1,0.02-0.15,0.04c-0.02,0.01-0.04,0.02-0.06,0.03l-0.81-2.09
						c0.01-0.02,0.01-0.03,0.02-0.05c0.01-0.03,0.02-0.06,0.03-0.09c0.01-0.03,0.02-0.06,0.03-0.1c0.03-0.13,0.05-0.28,0.05-0.44
						c0-0.08-0.01-0.16-0.04-0.25c-0.02-0.08-0.07-0.16-0.11-0.22c-0.05-0.06-0.09-0.09-0.12-0.11c-0.01-0.01-0.02-0.02-0.03-0.04
						c-0.01-0.01-0.02-0.03-0.02-0.04c-0.03-0.06-0.04-0.16-0.05-0.28c0-0.11,0-0.24-0.01-0.38c-0.01-0.14-0.03-0.28-0.07-0.42
						c-0.05-0.14-0.12-0.27-0.22-0.36c-0.05-0.04-0.11-0.08-0.17-0.09c-0.06-0.01-0.12-0.01-0.17,0.01
						c-0.05,0.01-0.1,0.04-0.15,0.06c-0.01,0-0.01,0.01-0.02,0.01l-0.94-2.43c0.01-0.11,0.02-0.23,0.03-0.34
						c0.01-0.17,0.02-0.36,0-0.53c-0.01-0.18-0.05-0.36-0.1-0.53c-0.03-0.09-0.06-0.17-0.1-0.25c-0.04-0.08-0.09-0.15-0.15-0.21
						c-0.06-0.06-0.12-0.11-0.19-0.15c-0.07-0.03-0.15-0.06-0.23-0.04c-0.08,0.01-0.17,0.06-0.23,0.13
						c-0.07,0.07-0.11,0.16-0.14,0.25c-0.07,0.18-0.09,0.37-0.1,0.54c-0.01,0.15-0.01,0.3-0.01,0.45c-0.1,0.1-0.19,0.23-0.25,0.39
						l-0.81,2.09c-0.01-0.02-0.02-0.05-0.04-0.07c-0.04-0.07-0.09-0.14-0.15-0.19c-0.06-0.05-0.13-0.1-0.22-0.1
						c-0.08-0.01-0.17,0.03-0.23,0.09c-0.07,0.06-0.12,0.14-0.15,0.23c-0.04,0.09-0.06,0.18-0.07,0.27
						c-0.01,0.09-0.02,0.18-0.02,0.26c0,0.17,0.02,0.31,0.02,0.44c0,0.13-0.02,0.25-0.06,0.33c-0.02,0.04-0.04,0.07-0.08,0.1
						l-0.07,0.06c-0.03,0.02-0.05,0.05-0.08,0.08c-0.05,0.06-0.1,0.13-0.13,0.21c-0.04,0.08-0.06,0.16-0.08,0.25
						c-0.04,0.17-0.05,0.34-0.04,0.51c0,0.04,0.01,0.08,0.01,0.13c0,0.04,0.01,0.08,0.02,0.12c0.01,0.08,0.03,0.16,0.05,0.23
						c0.02,0.1,0.05,0.2,0.08,0.3l-0.87,2.25c-0.03-0.05-0.06-0.1-0.11-0.14c-0.05-0.05-0.12-0.09-0.18-0.1
						c-0.07-0.01-0.13,0-0.19,0.04c-0.06,0.03-0.11,0.08-0.16,0.13c-0.04,0.05-0.08,0.12-0.11,0.19c-0.06,0.14-0.08,0.28-0.1,0.42
						c-0.03,0.28-0.01,0.55,0.03,0.81c0.03,0.18,0.06,0.35,0.1,0.51l-0.86,2.24c-0.05-0.01-0.1-0.02-0.15-0.01
						c-0.1,0.01-0.2,0.08-0.27,0.17c-0.07,0.09-0.12,0.19-0.15,0.31c-0.02,0.06-0.03,0.11-0.04,0.17c-0.01,0.03-0.01,0.06-0.01,0.1
						c-0.06,0.01-0.11,0.03-0.17,0.05c-0.34,0.14-0.61,0.48-0.75,0.93C35.47,22.23,35.62,23.05,36.07,23.51z"/>
				</g>
			</g>
			<g>
				<g>
					<path class="st4" d="M43.49,7.11c0.02,0.01,0.03,0.03,0.05,0.04C43.52,7.13,43.5,7.12,43.49,7.11z"/>
				</g>
			</g>
		</g>
		<g>
			<g>
				<g>
					<path class="st5" d="M37.83,21.22l1.16-3.01l0.22-0.56l0.26-0.66l0.08-0.2l0.03-0.07l0.02-0.04l1-2.6l0.94-2.44l0.16-0.42
						l0.04-0.1l0.91-2.35c0.06-0.15,0.14-0.27,0.24-0.35c0.12-0.1,0.26-0.14,0.39-0.12c0.2,0.03,0.4,0.18,0.51,0.47l0.07,0.18
						l4.73,12.27c-0.99,0.92-1.98,1.58-2.97,2C43,24.31,40.41,23.65,37.83,21.22z"/>
				</g>
			</g>
			<g class="st6">
				<g>
					<path class="st7" d="M42.77,8.52c0.03-0.04,0.06-0.07,0.09-0.09c0.12-0.1,0.26-0.14,0.39-0.12c0.2,0.03,0.4,0.18,0.51,0.47
						l0.07,0.18l4.73,12.27c-0.52,0.48-1.04,0.89-1.56,1.24c0.42-0.3,0.84-0.64,1.26-1.03L43.54,9.16l-0.07-0.18
						c-0.11-0.29-0.31-0.45-0.51-0.47C42.9,8.49,42.83,8.5,42.77,8.52z"/>
				</g>
			</g>
			<g>
				<g>
					<path class="st4" d="M43.17,8.12c0.29,0,0.54,0.21,0.68,0.57l4.8,12.45c0.03,0.09,0.01,0.2-0.05,0.24
						c-0.06,0.05-0.14,0.01-0.17-0.07l-4.8-12.45c-0.09-0.24-0.26-0.38-0.46-0.38c-0.19,0-0.36,0.14-0.46,0.38l-4.8,12.45
						c-0.03,0.09-0.11,0.12-0.17,0.07c-0.06-0.05-0.09-0.16-0.05-0.24l4.8-12.45C42.62,8.33,42.88,8.12,43.17,8.12z"/>
				</g>
			</g>
			<g>
				<g>
					<path class="st8" d="M36.55,22.16c0.17-0.54,0.53-0.86,0.91-0.89c0.13-0.01,0.26,0.01,0.39,0.07c0.09,0.04,0.18,0.1,0.26,0.18
						c0.08,0.08,0.16,0.15,0.24,0.23c0.02,0.02,0.04,0.04,0.06,0.06c0.75,0.66,1.58,1.17,2.46,1.49c0.24,0.09,0.48,0.16,0.73,0.22
						c0.17,0.04,0.35,0.08,0.52,0.11c0.03,0,0.06,0.01,0.09,0.01c0.01,0,0.02,0,0.03,0c0.03,0,0.07,0.01,0.1,0.01
						c0.27,0.03,0.55,0.05,0.83,0.05c0.77,0,1.52-0.14,2.23-0.39c0.14-0.05,0.27-0.1,0.41-0.16c0.44-0.19,0.86-0.43,1.27-0.7
						c0.4-0.27,0.78-0.59,1.15-0.94c0.54-0.52,1.29-0.22,1.56,0.63c0.06,0.19,0.09,0.39,0.09,0.59c0,0.46-0.15,0.9-0.43,1.19
						c-1.81,1.88-3.99,2.89-6.28,2.89c-1.39,0-2.74-0.37-3.99-1.09c-0.81-0.46-1.58-1.07-2.29-1.81
						C36.49,23.53,36.35,22.79,36.55,22.16z"/>
				</g>
			</g>
			<g class="st6">
				<g>
					<path class="st7" d="M36.82,23.86c1.76,1.74,3.86,2.68,6.07,2.68c2.29,0,4.47-1.02,6.28-2.89c0.28-0.29,0.43-0.73,0.43-1.19
						c0-0.2-0.03-0.4-0.09-0.59c-0.05-0.17-0.12-0.31-0.21-0.44c0.21,0.15,0.38,0.4,0.48,0.72c0.06,0.19,0.09,0.39,0.09,0.59
						c0,0.46-0.15,0.9-0.43,1.19c-1.81,1.88-3.99,2.89-6.28,2.89s-4.47-1.01-6.28-2.89C36.86,23.91,36.84,23.89,36.82,23.86z"/>
				</g>
			</g>
			<g>
				<g>
					<path class="st4" d="M37.51,21.09c0.23,0,0.47,0.1,0.66,0.29c1.47,1.42,3.2,2.16,4.99,2.16c1.79,0,3.52-0.75,4.99-2.16
						c0.29-0.28,0.65-0.36,0.99-0.22c0.34,0.14,0.61,0.48,0.75,0.93c0.22,0.71,0.06,1.53-0.38,1.99c-1.84,1.92-4.04,2.93-6.35,2.93
						c-2.31,0-4.51-1.01-6.35-2.93c-0.44-0.46-0.6-1.28-0.38-1.99c0.14-0.45,0.42-0.79,0.75-0.93
						C37.29,21.12,37.4,21.09,37.51,21.09z M43.17,23.91c-1.84,0-3.62-0.77-5.14-2.23c-0.23-0.22-0.51-0.28-0.78-0.18
						c-0.27,0.11-0.48,0.37-0.59,0.73l0,0c-0.17,0.56-0.05,1.2,0.3,1.56c1.8,1.87,3.94,2.86,6.2,2.86c2.26,0,4.4-0.99,6.2-2.86
						c0.35-0.36,0.47-1,0.3-1.56c-0.11-0.36-0.33-0.62-0.59-0.73c-0.27-0.11-0.55-0.04-0.78,0.18
						C46.78,23.14,45.01,23.91,43.17,23.91z"/>
				</g>
			</g>
			<g>
				<g>
					<path class="st8" d="M39.76,23.81c0.34,0.15,0.7-0.14,1-0.41c0.03-0.03,0.07-0.06,0.1-0.09c0.28-0.24,0.6-0.43,0.9-0.27
						c0.18,0.1,0.32,0.32,0.43,0.54c0,0.01,0.01,0.01,0.01,0.02c0.01,0.02,0.02,0.04,0.03,0.06c0.1,0.21,0.2,0.44,0.34,0.6
						c0.15,0.18,0.28,0.31,0.62,0.28c-1.02,0.52-1.98,0.48-2.86-0.19C40.14,24.2,39.95,24.02,39.76,23.81z"/>
				</g>
			</g>
			<g class="st6">
				<g>
					<path class="st7" d="M42.07,23.46c-0.07,0.25-0.02,0.55,0.1,0.75c0.13,0.2,0.34,0.29,0.52,0.22
						C42.51,24.08,42.29,23.78,42.07,23.46z"/>
				</g>
			</g>
			<g>
				<g>
					<path class="st4" d="M43.2,24.59c-0.08,0.02-0.17,0.04-0.26,0.03c-0.09-0.01-0.19-0.05-0.27-0.11
						c-0.04-0.03-0.08-0.07-0.11-0.1c-0.03-0.03-0.07-0.07-0.11-0.12c-0.07-0.09-0.13-0.18-0.18-0.28c-0.05-0.1-0.1-0.19-0.15-0.28
						c-0.05-0.09-0.1-0.18-0.15-0.26c-0.05-0.08-0.1-0.15-0.16-0.2c-0.06-0.05-0.12-0.08-0.19-0.1c-0.13-0.03-0.28,0.03-0.42,0.12
						c-0.07,0.04-0.14,0.09-0.21,0.15l-0.11,0.08l-0.11,0.09c-0.07,0.06-0.15,0.12-0.23,0.17c-0.08,0.05-0.16,0.1-0.25,0.13
						c-0.09,0.03-0.18,0.05-0.27,0.05c-0.09,0-0.18-0.03-0.26-0.09c-0.02-0.01-0.02-0.04-0.01-0.06c0.01-0.02,0.02-0.03,0.03-0.02
						l0,0c0.16,0.03,0.31-0.02,0.46-0.11c0.14-0.09,0.28-0.22,0.41-0.35l0.05-0.05l0.05-0.05c0.04-0.03,0.07-0.07,0.11-0.1
						c0.08-0.06,0.15-0.12,0.24-0.17c0.08-0.05,0.17-0.09,0.27-0.11c0.09-0.02,0.19-0.03,0.29-0.01c0.1,0.02,0.2,0.07,0.28,0.14
						c0.09,0.07,0.16,0.16,0.22,0.26c0.06,0.1,0.12,0.2,0.16,0.3c0.05,0.1,0.09,0.2,0.13,0.3c0.04,0.1,0.09,0.19,0.14,0.27
						c0.03,0.04,0.05,0.08,0.08,0.12c0.03,0.04,0.06,0.08,0.09,0.11c0.03,0.03,0.06,0.06,0.09,0.08c0.03,0.02,0.07,0.04,0.11,0.06
						c0.07,0.03,0.16,0.04,0.24,0.05l0,0c0.02,0,0.03,0.02,0.03,0.05C43.22,24.57,43.21,24.58,43.2,24.59z"/>
				</g>
			</g>
			<g>
				<g>
					<path class="st8" d="M45.4,23.33c0-0.01,0-0.03,0-0.04c-0.02-0.28-0.08-0.57-0.05-0.85c0.04-0.28,0.22-0.55,0.42-0.48
						c0.09,0.03,0.16,0.13,0.23,0.21c0.08,0.09,0.15,0.18,0.25,0.18c0.11,0,0.2-0.11,0.31-0.14c0.19-0.07,0.37,0.08,0.52,0.26
						c0.03,0.03,0.06,0.07,0.09,0.11c0.17,0.22,0.39,0.44,0.61,0.35l-1.9,0.85l-0.66,0.29C45.38,23.91,45.41,23.61,45.4,23.33z"/>
				</g>
			</g>
			<g class="st6">
				<g>
					<path class="st7" d="M45.92,22.17c0.01,0.26,0.16,0.5,0.35,0.55c0.17,0.04,0.36-0.07,0.53,0c0.17,0.07,0.28,0.32,0.45,0.42
						c0.15,0.08,0.33,0.02,0.44-0.14c-0.21-0.11-0.39-0.26-0.57-0.46c-0.06-0.07-0.12-0.14-0.19-0.19c-0.15-0.11-0.33-0.08-0.5-0.06
						C46.25,22.3,46.06,22.31,45.92,22.17z"/>
				</g>
			</g>
			<g>
				<g>
					<path class="st4" d="M45.2,24.03c0.05-0.1,0.07-0.19,0.08-0.29c0.01-0.1,0.01-0.21,0-0.31c0-0.05-0.01-0.1-0.02-0.16
						l-0.02-0.17c-0.02-0.12-0.03-0.24-0.04-0.38c0-0.07,0-0.14,0-0.21c0-0.04,0.01-0.07,0.01-0.11c0.01-0.04,0.01-0.08,0.02-0.11
						c0.04-0.15,0.1-0.27,0.18-0.37c0.04-0.05,0.09-0.09,0.15-0.12c0.06-0.03,0.12-0.04,0.19-0.03c0.06,0.01,0.12,0.05,0.17,0.09
						c0.05,0.04,0.08,0.08,0.12,0.13c0.03,0.04,0.07,0.08,0.09,0.11c0.03,0.03,0.05,0.05,0.08,0.06c0.01,0,0.01,0,0.01,0.01
						c0,0,0,0,0.01,0c0,0,0,0,0.01,0c0.01,0,0.02,0,0.03,0c0.02-0.01,0.05-0.02,0.09-0.05c0.04-0.02,0.08-0.05,0.13-0.08
						c0.03-0.01,0.06-0.02,0.08-0.03c0.03,0,0.06-0.01,0.09-0.01c0.03,0,0.06,0.01,0.09,0.01c0.03,0.01,0.05,0.02,0.08,0.03
						c0.05,0.02,0.1,0.06,0.14,0.09c0.09,0.07,0.16,0.15,0.23,0.24c0.03,0.04,0.07,0.09,0.09,0.12c0.03,0.04,0.06,0.08,0.09,0.11
						c0.06,0.07,0.12,0.14,0.18,0.19c0.03,0.02,0.06,0.05,0.1,0.06c0.04,0.01,0.07,0.02,0.11,0.02l0,0c0.02,0,0.03,0.02,0.03,0.05
						c0,0.02-0.01,0.03-0.02,0.04c-0.04,0.03-0.09,0.06-0.14,0.07c-0.05,0.01-0.1,0-0.15-0.01c-0.1-0.03-0.19-0.09-0.26-0.16
						c-0.04-0.03-0.08-0.07-0.11-0.11l-0.1-0.11c-0.03-0.03-0.06-0.07-0.1-0.1c-0.03-0.03-0.06-0.06-0.09-0.08
						c-0.03-0.02-0.06-0.04-0.09-0.06c-0.02-0.01-0.03-0.01-0.04-0.02c-0.01,0-0.03-0.01-0.04-0.01c-0.01,0-0.03,0-0.04,0
						c-0.01,0-0.03,0.01-0.04,0.01c-0.03,0.01-0.06,0.04-0.1,0.06c-0.04,0.03-0.09,0.06-0.16,0.07c-0.06,0.02-0.14,0-0.19-0.03
						c-0.06-0.03-0.11-0.08-0.14-0.12c-0.04-0.04-0.07-0.09-0.1-0.12c-0.06-0.08-0.11-0.13-0.15-0.13c-0.02,0-0.04,0-0.07,0.01
						c-0.02,0.01-0.05,0.03-0.07,0.06c-0.04,0.05-0.08,0.14-0.1,0.22c0,0.02-0.01,0.04-0.01,0.06c0,0.02,0,0.05-0.01,0.07
						c0,0.05,0,0.1,0,0.15c0,0.11,0.02,0.22,0.03,0.34c0.01,0.06,0.01,0.12,0.01,0.19c0,0.06,0.01,0.13,0,0.2
						c-0.01,0.13-0.03,0.27-0.07,0.4c-0.04,0.13-0.12,0.24-0.21,0.28c-0.02,0.01-0.04,0-0.04-0.03
						C45.19,24.06,45.19,24.04,45.2,24.03L45.2,24.03z"/>
				</g>
			</g>
			<g>
				<g>
					<path class="st8" d="M37.15,22.29c0.15-0.11,0.22-0.35,0.25-0.58c0.02-0.15,0.03-0.3,0.05-0.44c0.01-0.08,0.02-0.17,0.04-0.25
						c0.05-0.22,0.17-0.44,0.33-0.48c0.05-0.01,0.11-0.01,0.16,0.02c0.15,0.07,0.27,0.28,0.32,0.49c0.05,0.22,0.05,0.46,0.05,0.69
						c0,0.07,0,0.15,0.01,0.22c0.02,0.31,0.1,0.64,0.3,0.77l-0.75-0.23L37.15,22.29z"/>
				</g>
			</g>
			<g class="st6">
				<g>
					<path class="st7" d="M37.99,20.67c0.09,0.37,0.14,0.77,0.13,1.16c0,0.2-0.02,0.41,0.04,0.59c0.07,0.22,0.26,0.35,0.43,0.3
						c-0.14-0.17-0.21-0.42-0.23-0.68s-0.01-0.51-0.01-0.77c0-0.15,0-0.31-0.08-0.42C38.2,20.74,38.09,20.69,37.99,20.67z"/>
				</g>
			</g>
			<g>
				<g>
					<path class="st4" d="M38.64,22.79c-0.08-0.03-0.15-0.09-0.2-0.18c-0.03-0.04-0.05-0.09-0.07-0.14
						c-0.02-0.05-0.04-0.1-0.06-0.15c-0.03-0.1-0.05-0.21-0.06-0.32c-0.01-0.11-0.02-0.21-0.02-0.31c-0.01-0.2-0.01-0.39-0.05-0.55
						c-0.01-0.08-0.04-0.15-0.07-0.21c-0.03-0.06-0.07-0.12-0.12-0.15c-0.04-0.03-0.09-0.05-0.13-0.04
						c-0.04,0.01-0.08,0.04-0.12,0.09c-0.04,0.05-0.07,0.11-0.1,0.18c-0.01,0.04-0.02,0.07-0.04,0.11
						c-0.01,0.04-0.02,0.08-0.03,0.13c-0.02,0.09-0.03,0.19-0.05,0.29c-0.01,0.1-0.03,0.21-0.06,0.31c-0.03,0.1-0.06,0.2-0.11,0.29
						c-0.05,0.09-0.12,0.16-0.19,0.2c-0.02,0.01-0.04,0-0.04-0.03c0-0.02,0-0.04,0.01-0.05l0,0c0.1-0.12,0.15-0.3,0.17-0.48
						c0.01-0.09,0.01-0.19,0.02-0.29c0-0.1,0.01-0.2,0.02-0.31c0-0.05,0.01-0.11,0.02-0.17c0.01-0.06,0.02-0.12,0.04-0.17
						c0.03-0.11,0.08-0.22,0.15-0.31c0.04-0.04,0.08-0.08,0.12-0.11c0.05-0.03,0.09-0.05,0.15-0.06c0.05-0.01,0.1,0,0.15,0.01
						c0.05,0.02,0.09,0.04,0.13,0.07c0.08,0.07,0.15,0.15,0.2,0.25c0.05,0.1,0.09,0.21,0.12,0.33c0.05,0.23,0.05,0.45,0.05,0.65
						c0,0.1,0,0.2,0,0.29c0,0.09,0.01,0.18,0.02,0.27c0.02,0.18,0.07,0.34,0.18,0.47l0,0c0.01,0.02,0.02,0.05,0,0.06
						C38.66,22.79,38.65,22.8,38.64,22.79z"/>
				</g>
			</g>
			<g>
				<g>
					<path class="st5" d="M38.84,16.88c0.01-0.16,0.04-0.33,0.11-0.46c0.07-0.13,0.19-0.22,0.3-0.2c0.08,0.01,0.14,0.07,0.19,0.15
						c0.06,0.09,0.1,0.21,0.12,0.34c0,0.01,0,0.01,0,0.02c0.03,0.22,0.01,0.45,0.02,0.67c0.01,0.23,0.08,0.48,0.23,0.58l-0.35,0.76
						l-0.48,1.05c0.16-0.44,0.11-0.97,0.02-1.45C39,18.29,39,18.25,38.99,18.21C38.9,17.77,38.81,17.33,38.84,16.88z"/>
				</g>
			</g>
			<g>
				<g>
					<path class="st4" d="M38.96,19.77c0.05-0.23,0.06-0.47,0.04-0.71c-0.01-0.12-0.02-0.23-0.05-0.35
						c-0.02-0.12-0.04-0.23-0.07-0.35c-0.05-0.24-0.11-0.48-0.14-0.74c-0.04-0.26-0.05-0.53-0.03-0.81c0.01-0.14,0.04-0.29,0.1-0.42
						c0.03-0.07,0.07-0.14,0.11-0.19c0.04-0.06,0.1-0.1,0.16-0.13c0.03-0.01,0.06-0.03,0.09-0.03c0.03-0.01,0.07-0.01,0.1,0
						c0.07,0.01,0.13,0.05,0.18,0.1c0.11,0.1,0.17,0.24,0.2,0.39c0.02,0.07,0.03,0.15,0.03,0.22c0,0.07,0,0.14,0,0.21
						c0,0.13-0.01,0.26-0.02,0.37c0,0.06,0,0.11,0,0.17c0,0.06,0.01,0.11,0.02,0.16c0.02,0.11,0.06,0.21,0.12,0.28l0,0
						c0.01,0.02,0.02,0.04,0.01,0.06c-0.01,0.02-0.02,0.02-0.04,0.02c-0.05-0.02-0.09-0.06-0.13-0.11
						c-0.04-0.05-0.07-0.11-0.09-0.17c-0.02-0.06-0.04-0.13-0.06-0.2c-0.01-0.07-0.02-0.14-0.03-0.2c-0.01-0.13-0.02-0.26-0.02-0.38
						c-0.01-0.12-0.02-0.23-0.05-0.31c-0.03-0.09-0.07-0.16-0.11-0.21c-0.04-0.04-0.08-0.05-0.14-0.03
						c-0.03,0.01-0.05,0.03-0.07,0.06c-0.02,0.03-0.04,0.06-0.06,0.1c-0.03,0.08-0.05,0.18-0.06,0.29c-0.02,0.22,0,0.45,0.04,0.69
						c0.04,0.23,0.08,0.47,0.12,0.72c0.02,0.13,0.04,0.26,0.05,0.39c0.01,0.13,0.02,0.26,0.01,0.4c0,0.13-0.02,0.27-0.05,0.4
						c-0.03,0.13-0.07,0.25-0.13,0.36c-0.01,0.02-0.03,0.02-0.05,0.01C38.96,19.81,38.96,19.79,38.96,19.77z"/>
				</g>
			</g>
			<g>
				<g>
					<path class="st9" d="M40.55,15.37l0.07-0.16C40.6,15.27,40.58,15.32,40.55,15.37z"/>
				</g>
			</g>
			<g>
				<g>
					<path class="st5" d="M40.64,12.37c0.06-0.06,0.12-0.09,0.17-0.16c0.11-0.13,0.14-0.35,0.14-0.56c0-0.2-0.03-0.41,0-0.61
						c0.02-0.2,0.12-0.4,0.26-0.44c0,0,0.01,0,0.01,0c0.14-0.03,0.28,0.12,0.36,0.29c0.05,0.1,0.08,0.21,0.11,0.32
						c0.03,0.08,0.05,0.17,0.09,0.25c0.08,0.18,0.21,0.34,0.36,0.32l-0.98,2.23l-0.53,1.2c0.08-0.26,0.07-0.58,0.02-0.86
						c-0.02-0.09-0.04-0.18-0.06-0.28c-0.06-0.25-0.13-0.49-0.16-0.74C40.38,12.99,40.43,12.58,40.64,12.37z"/>
				</g>
			</g>
			<g>
				<g>
					<path class="st4" d="M40.53,15.34c0.1-0.25,0.09-0.54,0.04-0.8c-0.01-0.07-0.03-0.13-0.04-0.2c-0.02-0.07-0.04-0.13-0.06-0.2
						c-0.04-0.14-0.08-0.27-0.12-0.42c-0.02-0.07-0.03-0.15-0.05-0.23c-0.01-0.04-0.01-0.08-0.02-0.12c0-0.04-0.01-0.08-0.01-0.13
						c-0.01-0.17,0-0.34,0.04-0.51c0.02-0.08,0.04-0.17,0.08-0.25c0.04-0.08,0.08-0.15,0.13-0.21c0.03-0.03,0.05-0.06,0.08-0.08
						l0.07-0.06c0.04-0.03,0.06-0.06,0.08-0.1c0.04-0.08,0.06-0.2,0.06-0.33c0-0.13-0.01-0.28-0.02-0.44c0-0.08,0-0.17,0.02-0.26
						c0.01-0.09,0.04-0.18,0.07-0.27c0.04-0.08,0.09-0.17,0.15-0.23c0.07-0.06,0.15-0.09,0.23-0.09c0.08,0.01,0.16,0.05,0.22,0.1
						c0.06,0.05,0.11,0.12,0.15,0.19c0.02,0.04,0.04,0.08,0.05,0.11c0.02,0.04,0.03,0.08,0.04,0.11c0.03,0.08,0.05,0.15,0.06,0.22
						c0.02,0.07,0.03,0.13,0.05,0.2c0.01,0.03,0.02,0.06,0.03,0.09c0.01,0.03,0.02,0.05,0.03,0.08c0.05,0.1,0.11,0.19,0.21,0.23l0,0
						c0.02,0.01,0.03,0.03,0.02,0.06c0,0.02-0.01,0.03-0.02,0.03c-0.03,0.01-0.06,0.02-0.09,0.02c-0.03,0-0.06-0.01-0.1-0.02
						c-0.06-0.03-0.12-0.07-0.17-0.13c-0.02-0.03-0.05-0.06-0.07-0.09c-0.02-0.03-0.04-0.07-0.06-0.11
						c-0.03-0.07-0.06-0.14-0.08-0.21c-0.02-0.07-0.04-0.13-0.07-0.19c-0.01-0.03-0.02-0.06-0.03-0.08
						c-0.01-0.03-0.02-0.05-0.04-0.07c-0.03-0.04-0.06-0.08-0.09-0.1c-0.03-0.03-0.06-0.04-0.08-0.04c-0.02,0-0.05,0.01-0.07,0.03
						c-0.02,0.02-0.05,0.05-0.06,0.1c-0.02,0.04-0.03,0.09-0.04,0.15c-0.01,0.05-0.01,0.12-0.01,0.18c0,0.13,0.01,0.28,0.01,0.45
						c0,0.09-0.01,0.17-0.03,0.26c-0.02,0.09-0.04,0.18-0.08,0.26c-0.02,0.04-0.05,0.08-0.07,0.12c-0.03,0.04-0.06,0.06-0.08,0.08
						l-0.07,0.06c-0.02,0.02-0.04,0.03-0.05,0.05c-0.06,0.07-0.1,0.17-0.13,0.29c-0.02,0.12-0.03,0.25-0.02,0.38
						c0,0.03,0.01,0.06,0.01,0.1c0,0.03,0.01,0.07,0.01,0.1c0.01,0.07,0.02,0.13,0.04,0.2c0.03,0.14,0.06,0.28,0.09,0.42
						c0.01,0.07,0.03,0.15,0.04,0.23c0.01,0.08,0.02,0.16,0.03,0.24c0.01,0.16,0.01,0.33-0.02,0.49c-0.03,0.16-0.09,0.31-0.17,0.42
						c-0.01,0.02-0.03,0.02-0.05,0C40.52,15.38,40.52,15.36,40.53,15.34L40.53,15.34z"/>
				</g>
			</g>
			<g>
				<g>
					<path class="st5" d="M47.69,20.35c-0.22-0.44-0.24-1.02-0.2-1.56s0.11-1.08,0.04-1.61c-0.04-0.34-0.18-0.7-0.42-0.76
						c-0.16-0.04-0.32,0.08-0.47,0.15c-0.16,0.07-0.35,0.09-0.46-0.09"/>
				</g>
			</g>
			<g class="st6">
				<g>
					<path class="st7" d="M47.69,20.35c-0.04-0.09-0.08-0.18-0.11-0.28L47.69,20.35z"/>
				</g>
			</g>
			<g class="st6">
				<g>
					<path class="st7" d="M46.71,16.51c0.12-0.06,0.23-0.12,0.36-0.09c0.24,0.06,0.38,0.42,0.42,0.76c0.07,0.53-0.01,1.08-0.04,1.61
						c-0.03,0.43-0.02,0.89,0.09,1.28l-0.26-0.68c-0.04-0.11-0.06-0.24-0.06-0.36c0,0,0,0,0,0c0.03-0.54,0.11-1.08,0.04-1.61
						c-0.04-0.33-0.18-0.7-0.42-0.76c-0.03-0.01-0.06-0.01-0.09-0.01C46.74,16.61,46.73,16.56,46.71,16.51z"/>
				</g>
			</g>
			<g>
				<g>
					<path class="st4" d="M47.66,20.38c-0.11-0.19-0.18-0.42-0.22-0.66c-0.04-0.24-0.05-0.48-0.05-0.72c0-0.24,0.02-0.48,0.03-0.71
						c0.01-0.23,0.02-0.46,0.01-0.68c0-0.11-0.01-0.22-0.03-0.33c-0.01-0.05-0.01-0.1-0.02-0.15c-0.01-0.05-0.02-0.1-0.04-0.14
						c-0.01-0.05-0.03-0.09-0.05-0.13c-0.02-0.04-0.04-0.08-0.06-0.11c-0.02-0.03-0.04-0.06-0.07-0.08
						c-0.01-0.01-0.01-0.01-0.02-0.01c-0.01,0-0.01-0.01-0.02-0.01c-0.01-0.01-0.02-0.01-0.04-0.02c-0.02-0.01-0.05-0.01-0.08-0.01
						c-0.03,0-0.06,0.01-0.1,0.02c-0.07,0.02-0.15,0.06-0.23,0.1c-0.09,0.04-0.19,0.05-0.29,0.02c-0.05-0.01-0.1-0.04-0.15-0.08
						c-0.04-0.04-0.08-0.1-0.1-0.17c-0.01-0.03,0-0.05,0.02-0.06c0.01,0,0.02,0,0.03,0l0,0c0.04,0.02,0.07,0.04,0.1,0.04
						c0.03,0,0.07,0,0.1-0.01c0.07-0.02,0.13-0.05,0.2-0.08c0.07-0.04,0.15-0.09,0.24-0.13c0.05-0.02,0.1-0.04,0.15-0.04
						c0.05-0.01,0.11,0,0.17,0.02c0.11,0.03,0.21,0.13,0.28,0.24c0.04,0.06,0.06,0.12,0.09,0.18c0.02,0.06,0.05,0.12,0.06,0.19
						c0.02,0.06,0.03,0.13,0.04,0.19c0.01,0.06,0.02,0.13,0.02,0.19c0.01,0.13,0.01,0.25,0.01,0.37c0,0.25-0.02,0.49-0.05,0.72
						c-0.02,0.23-0.05,0.46-0.07,0.69c-0.01,0.23-0.02,0.46,0,0.68c0.02,0.22,0.07,0.44,0.15,0.64l0,0c0.01,0.02,0,0.05-0.01,0.06
						C47.69,20.4,47.67,20.39,47.66,20.38z"/>
				</g>
			</g>
			<g>
				<g>
					<path class="st5" d="M45.7,15.67c-0.11-0.25-0.1-0.58-0.05-0.86c0.06-0.29,0.16-0.55,0.23-0.83c0.07-0.26,0.1-0.58-0.04-0.77
						c-0.04-0.06-0.1-0.09-0.14-0.15c-0.14-0.17-0.12-0.47-0.12-0.73c0-0.16-0.02-0.33-0.07-0.48c-0.05-0.15-0.14-0.27-0.26-0.31
						c-0.16-0.06-0.31,0.05-0.46,0.13c-0.15,0.08-0.33,0.14-0.46,0"/>
				</g>
			</g>
			<g class="st6">
				<g>
					<path class="st7" d="M45.7,15.67c-0.02-0.04-0.03-0.08-0.04-0.12L45.7,15.67z"/>
				</g>
			</g>
			<g class="st6">
				<g>
					<path class="st7" d="M44.98,11.59c-0.01,0-0.02,0-0.02-0.01c0.1-0.05,0.2-0.08,0.3-0.05c0.11,0.04,0.21,0.17,0.26,0.31
						c0.05,0.15,0.07,0.31,0.07,0.48c0,0.26-0.01,0.56,0.12,0.73c0.04,0.06,0.1,0.09,0.14,0.15c0.14,0.18,0.11,0.51,0.04,0.77
						c-0.07,0.28-0.18,0.54-0.23,0.83c-0.05,0.24-0.06,0.51,0,0.74l-0.01-0.04c-0.16-0.46-0.17-0.99-0.04-1.47c0,0,0-0.01,0-0.01
						c0.07-0.26,0.1-0.58-0.04-0.77c-0.04-0.06-0.1-0.09-0.14-0.15c-0.14-0.17-0.12-0.47-0.12-0.73c0-0.16-0.02-0.33-0.07-0.48
						C45.18,11.76,45.09,11.63,44.98,11.59z"/>
				</g>
			</g>
			<g>
				<g>
					<path class="st4" d="M45.68,15.69c-0.07-0.1-0.11-0.23-0.13-0.36c-0.02-0.13-0.03-0.27-0.02-0.41c0.02-0.28,0.1-0.52,0.16-0.75
						L45.74,14c0.01-0.03,0.02-0.06,0.02-0.08c0.01-0.03,0.01-0.05,0.02-0.08c0.02-0.1,0.04-0.21,0.03-0.3
						c0-0.04-0.01-0.08-0.02-0.12c-0.01-0.03-0.02-0.06-0.04-0.08c-0.02-0.02-0.05-0.05-0.1-0.1c-0.02-0.02-0.05-0.06-0.07-0.09
						c-0.02-0.03-0.04-0.07-0.05-0.11c-0.03-0.08-0.05-0.16-0.06-0.23c-0.01-0.07-0.01-0.15-0.02-0.21c0-0.13,0-0.26-0.01-0.37
						c-0.01-0.11-0.02-0.21-0.06-0.29c-0.03-0.08-0.08-0.15-0.12-0.19c-0.02-0.02-0.05-0.03-0.07-0.04c-0.03-0.01-0.06-0.01-0.09,0
						c-0.07,0.01-0.14,0.05-0.23,0.09c-0.04,0.02-0.09,0.04-0.14,0.05c-0.05,0.01-0.1,0.02-0.15,0.02c-0.05,0-0.11-0.01-0.16-0.04
						c-0.05-0.03-0.1-0.07-0.13-0.13c-0.01-0.02-0.01-0.05,0.01-0.07c0.01-0.01,0.02-0.01,0.03-0.01l0,0
						c0.08,0.03,0.15,0.02,0.22-0.01c0.04-0.02,0.07-0.04,0.11-0.06c0.04-0.02,0.07-0.05,0.11-0.08c0.04-0.03,0.08-0.06,0.13-0.08
						c0.05-0.02,0.09-0.05,0.15-0.06c0.05-0.01,0.11-0.02,0.17-0.01c0.06,0.01,0.12,0.04,0.17,0.09c0.1,0.09,0.18,0.22,0.22,0.36
						c0.05,0.14,0.06,0.29,0.07,0.42c0.01,0.14,0,0.26,0.01,0.38c0,0.11,0.02,0.21,0.04,0.28c0.01,0.02,0.01,0.03,0.02,0.04
						c0.01,0.01,0.02,0.02,0.03,0.04c0.03,0.03,0.07,0.06,0.12,0.11c0.05,0.06,0.09,0.14,0.11,0.22c0.03,0.08,0.04,0.17,0.04,0.25
						c0.01,0.16-0.02,0.3-0.05,0.44c-0.01,0.03-0.02,0.07-0.03,0.1c-0.01,0.03-0.02,0.06-0.03,0.09c-0.02,0.06-0.04,0.12-0.06,0.17
						c-0.08,0.23-0.15,0.44-0.19,0.65c-0.02,0.11-0.04,0.22-0.04,0.33c0,0.11,0.01,0.23,0.03,0.34l0,0c0.01,0.02,0,0.05-0.02,0.06
						C45.7,15.71,45.68,15.7,45.68,15.69z"/>
				</g>
			</g>
			<g>
				<g>
					<path class="st5" d="M42.89,7.71c0.03-0.23,0.09-0.47,0.24-0.57c0.15-0.1,0.33-0.01,0.45,0.14c0.05,0.06,0.09,0.13,0.13,0.21
						c0.13,0.28,0.17,0.65,0.16,0.99c-0.01,0.16-0.02,0.31-0.04,0.47c-0.03,0.28-0.07,0.55-0.09,0.83
						c-0.02,0.44,0.03,0.92,0.25,1.23l-0.76-0.52l-0.35-0.24c0.13-0.14,0.18-0.39,0.17-0.62c-0.01-0.23-0.08-0.45-0.12-0.67
						c-0.03-0.18-0.05-0.36-0.06-0.54C42.85,8.19,42.86,7.95,42.89,7.71z"/>
				</g>
			</g>
			<g>
				<g>
					<path class="st4" d="M43.97,11.05c-0.05-0.06-0.09-0.12-0.13-0.19c-0.04-0.07-0.07-0.15-0.1-0.23
						c-0.05-0.16-0.08-0.34-0.1-0.51c-0.01-0.09-0.01-0.18-0.01-0.26c0-0.09,0-0.18,0.01-0.26c0.01-0.17,0.02-0.34,0.05-0.5
						c0.02-0.16,0.04-0.32,0.05-0.48c0.01-0.16,0.01-0.31,0-0.46C43.73,8,43.7,7.85,43.66,7.72c-0.02-0.07-0.05-0.13-0.08-0.18
						c-0.01-0.03-0.03-0.05-0.05-0.08c-0.02-0.02-0.04-0.05-0.05-0.07c-0.07-0.08-0.16-0.13-0.24-0.11c-0.02,0-0.03,0.01-0.05,0.02
						c-0.02,0.01-0.03,0.02-0.04,0.04c-0.03,0.03-0.05,0.08-0.07,0.14c-0.04,0.12-0.06,0.26-0.08,0.42
						c-0.01,0.15-0.02,0.31-0.02,0.47c0,0.16,0.01,0.31,0.03,0.47c0.02,0.15,0.05,0.31,0.08,0.48c0.01,0.08,0.02,0.17,0.03,0.26
						c0,0.09,0,0.18-0.01,0.27c-0.01,0.09-0.03,0.18-0.07,0.26c-0.02,0.04-0.04,0.08-0.06,0.11c-0.02,0.03-0.05,0.06-0.08,0.09
						c-0.01,0.01-0.03,0.01-0.04-0.01c-0.01-0.02-0.01-0.04,0.01-0.06l0,0c0.08-0.1,0.11-0.25,0.12-0.4
						c0.01-0.15-0.02-0.3-0.06-0.45c-0.02-0.08-0.04-0.15-0.06-0.23c-0.02-0.08-0.04-0.16-0.06-0.25c-0.03-0.17-0.06-0.34-0.07-0.52
						c-0.01-0.18-0.01-0.35,0-0.53c0.01-0.09,0.02-0.17,0.03-0.27c0.02-0.09,0.04-0.18,0.07-0.27c0.03-0.09,0.08-0.18,0.14-0.25
						c0.06-0.07,0.15-0.12,0.23-0.13c0.08-0.01,0.16,0.01,0.23,0.04c0.07,0.03,0.13,0.09,0.19,0.15c0.03,0.03,0.05,0.07,0.08,0.1
						c0.02,0.04,0.05,0.07,0.07,0.11c0.04,0.08,0.08,0.16,0.1,0.25c0.06,0.17,0.09,0.35,0.1,0.53c0.01,0.18,0.01,0.36,0,0.53
						c-0.01,0.17-0.03,0.34-0.05,0.51c-0.02,0.17-0.04,0.32-0.07,0.48c-0.02,0.16-0.04,0.31-0.04,0.47c0,0.16,0.01,0.31,0.03,0.46
						c0.01,0.07,0.03,0.15,0.05,0.22c0.02,0.07,0.05,0.14,0.09,0.2l0,0c0.01,0.02,0.01,0.05-0.01,0.06
						C44,11.06,43.98,11.06,43.97,11.05z"/>
				</g>
			</g>
			<g class="st3">
				<g>
					<path class="st4" d="M36.55,22.16c0.17-0.54,0.53-0.86,0.91-0.89c0.01-0.08,0.02-0.17,0.04-0.25c0.05-0.22,0.17-0.44,0.33-0.48
						c0.05-0.01,0.11-0.01,0.16,0.02c0.03,0.05,0.06,0.09,0.09,0.14c-0.11,0.03-0.19,0.18-0.22,0.33c-0.02,0.1-0.02,0.2-0.01,0.3
						c0,0.06,0.01,0.11,0.01,0.17c0.02,0.22,0.04,0.43,0.06,0.65c0.01,0.11,0.02,0.21,0,0.32c0,0.01,0,0.03-0.01,0.04
						c-0.02,0.08-0.08,0.13-0.13,0.19c-0.26,0.31-0.36,0.87-0.22,1.31c0.12,0.38,0.37,0.63,0.62,0.86c0.33,0.3,0.66,0.59,1.01,0.85
						c-0.81-0.46-1.58-1.07-2.29-1.81C36.49,23.53,36.35,22.79,36.55,22.16z"/>
				</g>
			</g>
			<g class="st3">
				<g>
					<path class="st4" d="M38.36,21.86c0.02-0.02,0.03-0.03,0.05-0.05c0.75,0.66,1.58,1.17,2.46,1.49c0.28-0.24,0.6-0.43,0.9-0.27
						c0.18,0.1,0.32,0.32,0.43,0.54c0,0.03,0.01,0.05,0.01,0.08c0.01,0.04,0.01,0.08,0.01,0.12c-0.03-0.05-0.07-0.1-0.11-0.13
						c-0.15-0.14-0.34-0.16-0.52-0.11c-0.06,0.02-0.11,0.04-0.17,0.07c-0.27,0.15-0.49,0.42-0.75,0.59
						c-0.11,0.07-0.22,0.13-0.34,0.15c-0.17,0.03-0.34,0-0.48-0.14c-0.16-0.17-0.25-0.46-0.43-0.6c-0.09-0.08-0.2-0.1-0.3-0.15
						c-0.37-0.19-0.6-0.71-0.79-1.2c-0.02-0.06-0.02-0.13-0.02-0.2C38.32,21.99,38.32,21.9,38.36,21.86z"/>
				</g>
			</g>
			<g class="st3">
				<g>
					<path class="st4" d="M43.17,23.73c0.77,0,1.52-0.14,2.23-0.39c0-0.01,0-0.03,0-0.04c-0.02-0.28-0.08-0.57-0.05-0.85
						c0.04-0.28,0.22-0.55,0.42-0.48c0.09,0.03,0.16,0.13,0.23,0.21c0,0.02,0,0.04,0,0.06c-0.1-0.04-0.21,0.06-0.26,0.19
						c-0.05,0.13-0.04,0.29-0.01,0.44c0.02,0.11,0.05,0.21,0.08,0.31c0.01,0.04,0.02,0.07,0.03,0.11c0.04,0.16,0.05,0.33,0.04,0.49
						c-0.01,0.16-0.04,0.31-0.1,0.44c-0.13,0.26-0.36,0.39-0.59,0.42c-0.23,0.03-0.46-0.03-0.68-0.05
						c-0.23-0.03-0.47-0.03-0.67,0.11c-0.15,0.1-0.29,0.27-0.45,0.33c-0.2,0.07-0.42-0.05-0.58-0.25c-0.16-0.19-0.27-0.45-0.38-0.71
						c-0.05-0.12-0.07-0.25-0.08-0.39C42.61,23.71,42.89,23.73,43.17,23.73z"/>
				</g>
			</g>
			<g class="st3">
				<g>
					<path class="st4" d="M47.13,22.44c0.26-0.24,0.51-0.51,0.77-0.74c0.27-0.23,0.56-0.4,0.87-0.42c0.31-0.01,0.63,0.15,0.8,0.52
						c-0.21-0.15-0.46-0.18-0.68-0.08c-0.22,0.1-0.41,0.33-0.52,0.62c-0.05,0.14-0.08,0.29-0.15,0.41c-0.1,0.16-0.26,0.23-0.41,0.23
						c-0.15,0-0.3-0.07-0.44-0.13C47.28,22.8,47.18,22.58,47.13,22.44z"/>
				</g>
			</g>
			<g class="st3">
				<g>
					<path class="st4" d="M38.99,18.21c-0.08-0.44-0.18-0.88-0.15-1.33c0.01-0.16,0.04-0.33,0.11-0.46c0.07-0.13,0.19-0.22,0.3-0.2
						c0.08,0.01,0.14,0.07,0.19,0.15c0.05,0.13,0.08,0.27,0.09,0.42c0,0.05,0.01,0.11,0,0.16c-0.03,0.01-0.06,0.02-0.08,0.04
						c-0.13,0.08-0.22,0.27-0.25,0.47c-0.01,0.06-0.01,0.13-0.01,0.19c0,0.18,0.04,0.35,0.08,0.51c0.05,0.19,0.12,0.38,0.17,0.58
						c0.01,0.03,0.02,0.06,0.02,0.09c0.05,0.23,0.12,0.55,0.03,0.76c-0.2,0.44-0.29,0.98-0.2,1.49c0.09,0.5,0.39,0.94,0.76,1.01
						c0.31,0.06,0.61-0.12,0.92-0.19c0.35-0.08,0.72-0.01,1.04,0.21c0.27,0.18,0.51,0.46,0.8,0.61c0.28,0.15,0.59,0.15,0.89,0.15
						c0.22,0,0.46,0,0.66-0.12c0.22-0.14,0.38-0.4,0.58-0.59c0.18-0.18,0.42-0.29,0.61-0.16c-0.11,0.08-0.2,0.26-0.22,0.45
						c-0.04,0.28,0.02,0.57,0.05,0.85c0,0,0,0.01,0,0.01c-1.06,0.41-2.11,0.52-3.16,0.35h0c-0.01-0.02-0.02-0.03-0.03-0.05
						c0-0.01-0.01-0.01-0.01-0.02c-0.11-0.23-0.25-0.45-0.43-0.54c-0.28-0.15-0.59,0.02-0.86,0.24c-0.85-0.34-1.71-0.87-2.56-1.59
						c0-0.21-0.01-0.42-0.05-0.62c-0.04-0.18-0.13-0.35-0.24-0.44L38.99,18.21z"/>
				</g>
			</g>
			<g class="st3">
				<g>
					<path class="st4" d="M40.42,13.34c-0.04-0.35,0.01-0.76,0.22-0.96c0.06-0.06,0.12-0.09,0.17-0.16
						c0.11-0.13,0.14-0.35,0.14-0.56c0-0.2-0.03-0.41,0-0.61c0.02-0.2,0.12-0.4,0.26-0.44c0,0,0.01,0,0.01,0
						c0.17,0.1,0.27,0.4,0.3,0.67c0.01,0.12,0.01,0.24,0.01,0.36c-0.02,0.25-0.07,0.49-0.16,0.71c-0.09,0.23-0.23,0.43-0.28,0.68
						c-0.06,0.32-0.01,0.65,0.06,0.99c0.05,0.22,0.1,0.44,0.14,0.66c0.18-0.22,0.41-0.35,0.66-0.35c0.38,0,0.71,0.29,0.88,0.73
						c-0.1-0.05-0.22-0.08-0.33-0.08c-0.56,0-1.01,0.64-1.01,1.42c0,0.25,0.05,0.49,0.13,0.69c-0.32-0.15-0.56-0.52-0.65-0.98
						c-0.1,0.22-0.2,0.45-0.22,0.71c-0.02,0.24,0.03,0.48,0.05,0.72c0.02,0.24,0,0.51-0.13,0.68c-0.1,0.14-0.26,0.17-0.4,0.15
						c-0.24-0.04-0.47-0.25-0.6-0.55c0.02-0.38-0.03-0.76-0.1-1.13l1-2.6C40.52,13.83,40.45,13.59,40.42,13.34z"/>
				</g>
			</g>
			<g class="st3">
				<g>
					<path class="st4" d="M41.72,11.12l0.91-2.35c0.06-0.15,0.14-0.27,0.24-0.35c-0.01-0.24,0-0.48,0.03-0.71
						c0.03-0.23,0.09-0.47,0.24-0.57c0.15-0.1,0.33-0.01,0.45,0.14c0.05,0.06,0.09,0.13,0.13,0.21c-0.12,0.01-0.24,0.07-0.32,0.19
						c-0.11,0.16-0.14,0.39-0.13,0.62c0,0.06,0,0.13,0.01,0.19c0.04,0.42,0.13,0.84,0.12,1.27c0,0.26-0.05,0.53-0.16,0.75
						c-0.07,0.14-0.15,0.25-0.26,0.31c-0.14,0.09-0.32,0.12-0.37,0.33c-0.03,0.13,0.02,0.28,0,0.42c-0.02,0.21-0.2,0.34-0.35,0.32
						c-0.15-0.02-0.28-0.14-0.41-0.26C41.8,11.45,41.76,11.29,41.72,11.12z"/>
				</g>
			</g>
			<g class="st3">
				<g>
					<path class="st4" d="M48.13,21.57c-0.12,0.05-0.25-0.01-0.35-0.1c-0.11-0.09-0.2-0.21-0.31-0.28
						c-0.29-0.19-0.63-0.06-0.91,0.14c-0.28,0.2-0.55,0.46-0.86,0.55c0.05,0.07,0.12,0.1,0.17,0.16c0.06,0.09,0.13,0.17,0.21,0.22
						c0.15,0.09,0.32,0.02,0.49,0.01c0.17,0,0.35,0.07,0.49,0.21C47.46,22.36,47.84,22,48.13,21.57z"/>
				</g>
			</g>
			<g>
				<g>
					<ellipse class="st10" cx="45.16" cy="19.48" rx="1.01" ry="1.42"/>
				</g>
			</g>
			<g class="st3">
				<g>
					<path class="st4" d="M43.6,18.83c0-0.78,0.45-1.42,1.01-1.42c0.38,0,0.71,0.29,0.88,0.73c-0.1-0.05-0.22-0.08-0.33-0.08
						c-0.56,0-1.01,0.64-1.01,1.42c0,0.25,0.05,0.49,0.13,0.69C43.88,19.98,43.6,19.46,43.6,18.83z"/>
				</g>
			</g>
			<g class="st6">
				<g>
					<path class="st7" d="M45.87,19.27c0-0.47-0.17-0.89-0.42-1.15c0.42,0.17,0.73,0.72,0.73,1.36c0,0.78-0.45,1.42-1.01,1.42
						c-0.22,0-0.43-0.1-0.59-0.27c0.09,0.04,0.18,0.06,0.28,0.06C45.41,20.69,45.87,20.06,45.87,19.27z"/>
				</g>
			</g>
			<g>
				<g>
					<path class="st4" d="M45.16,17.89c0.63,0,1.14,0.72,1.14,1.6c0,0.88-0.51,1.6-1.14,1.6s-1.14-0.72-1.14-1.6
						C44.02,18.6,44.54,17.89,45.16,17.89z M45.16,20.73c0.49,0,0.88-0.56,0.88-1.24c0-0.68-0.4-1.24-0.88-1.24
						s-0.88,0.56-0.88,1.24C44.28,20.17,44.68,20.73,45.16,20.73z"/>
				</g>
			</g>
			<g class="st3">
				<g>
					<ellipse class="st4" cx="45.23" cy="19.11" rx="0.15" ry="0.21"/>
				</g>
			</g>
			<g class="st3">
				<g>
					<ellipse class="st4" cx="44.82" cy="19.71" rx="0.22" ry="0.31"/>
				</g>
			</g>
			<g>
				<g>
					<ellipse class="st10" cx="42.5" cy="16.4" rx="1.01" ry="1.42"/>
				</g>
			</g>
			<g class="st6">
				<g>
					<path class="st7" d="M43.2,16.18c0-0.47-0.17-0.89-0.42-1.15c0.42,0.17,0.73,0.72,0.73,1.36c0,0.78-0.45,1.42-1.01,1.42
						c-0.22,0-0.43-0.1-0.59-0.27c0.09,0.04,0.18,0.06,0.28,0.06C42.75,17.6,43.2,16.97,43.2,16.18z"/>
				</g>
			</g>
			<g>
				<g>
					<path class="st4" d="M42.5,14.8c0.63,0,1.14,0.72,1.14,1.6c0,0.88-0.51,1.6-1.14,1.6s-1.14-0.72-1.14-1.6
						C41.36,15.51,41.87,14.8,42.5,14.8z M42.5,17.64c0.49,0,0.88-0.56,0.88-1.24s-0.4-1.24-0.88-1.24c-0.49,0-0.88,0.56-0.88,1.24
						S42.01,17.64,42.5,17.64z"/>
				</g>
			</g>
			<g class="st3">
				<g>
					<ellipse class="st4" cx="42.56" cy="16.02" rx="0.15" ry="0.21"/>
				</g>
			</g>
			<g class="st3">
				<g>
					<ellipse class="st4" cx="42.15" cy="16.62" rx="0.22" ry="0.31"/>
				</g>
			</g>
			<g>
				<g>
					<path class="st9" d="M45.06,21.62c-0.08-0.02-0.14-0.14-0.16-0.26c-0.02-0.12-0.01-0.24-0.01-0.36c0-0.27-0.07-0.56-0.21-0.75
						c-0.14-0.19-0.36-0.28-0.54-0.17c-0.14,0.08-0.23,0.26-0.33,0.43c-0.1,0.16-0.21,0.33-0.36,0.36"/>
				</g>
			</g>
			<g>
				<g>
					<path class="st9" d="M45.06,21.62c-0.01,0-0.02-0.01-0.04-0.02L45.06,21.62z"/>
				</g>
			</g>
			<g class="st6">
				<g>
					<path class="st7" d="M43.9,20.34c0.07-0.11,0.14-0.21,0.23-0.26c0.18-0.11,0.4-0.02,0.54,0.17c0.14,0.19,0.2,0.48,0.21,0.75
						c0,0.12-0.01,0.24,0.01,0.36c0.02,0.1,0.06,0.2,0.13,0.24l-0.28-0.13c-0.06-0.03-0.1-0.11-0.11-0.2c0,0,0,0,0,0
						c0-0.27-0.07-0.56-0.21-0.75C44.3,20.33,44.08,20.24,43.9,20.34z"/>
				</g>
			</g>
			<g>
				<g>
					<path class="st4" d="M45.05,21.66c-0.03,0-0.07-0.01-0.1-0.03c-0.03-0.02-0.06-0.05-0.08-0.09c-0.02-0.04-0.04-0.08-0.06-0.12
						c-0.01-0.05-0.02-0.09-0.03-0.13c-0.01-0.09-0.02-0.17-0.02-0.24c-0.01-0.07-0.01-0.13-0.02-0.2c-0.02-0.13-0.06-0.25-0.1-0.34
						c-0.05-0.1-0.11-0.17-0.18-0.22c-0.07-0.05-0.15-0.07-0.23-0.05c-0.07,0.02-0.14,0.08-0.22,0.18c-0.04,0.05-0.07,0.1-0.11,0.15
						c-0.04,0.05-0.08,0.11-0.13,0.16c-0.05,0.05-0.1,0.1-0.15,0.14c-0.06,0.04-0.12,0.06-0.18,0.05c-0.02,0-0.03-0.02-0.03-0.05
						c0-0.02,0.01-0.04,0.02-0.04l0,0c0.09-0.05,0.16-0.15,0.22-0.26c0.03-0.06,0.06-0.11,0.09-0.18c0.03-0.06,0.06-0.13,0.1-0.19
						c0.04-0.06,0.08-0.13,0.13-0.19c0.05-0.06,0.12-0.11,0.18-0.13c0.14-0.06,0.28-0.03,0.41,0.04c0.06,0.04,0.12,0.09,0.17,0.15
						c0.05,0.07,0.09,0.14,0.13,0.22c0.07,0.16,0.11,0.33,0.12,0.5c0.01,0.09,0.01,0.17,0,0.26c0,0.08-0.01,0.15-0.02,0.21
						c0,0.06,0,0.12,0.01,0.18c0.01,0.06,0.03,0.11,0.07,0.14l0,0c0.01,0.01,0.02,0.04,0.01,0.06
						C45.07,21.65,45.06,21.66,45.05,21.66z"/>
				</g>
			</g>
			<g>
				<g>
					<path class="st9" d="M42.76,18.5c-0.09,0.01-0.16-0.07-0.21-0.18c-0.04-0.1-0.06-0.22-0.09-0.34c-0.06-0.26-0.18-0.5-0.35-0.63
						c-0.17-0.13-0.4-0.12-0.55,0.06c-0.12,0.14-0.17,0.35-0.23,0.55c-0.06,0.2-0.13,0.4-0.27,0.49"/>
				</g>
			</g>
			<g>
				<g>
					<path class="st9" d="M43.74,16.83l0.04,0C43.77,16.83,43.75,16.83,43.74,16.83z"/>
				</g>
			</g>
			<g class="st6">
				<g>
					<path class="st7" d="M41.52,17.46c0.01-0.02,0.03-0.04,0.04-0.05c0.15-0.18,0.38-0.18,0.55-0.06c0.17,0.13,0.29,0.37,0.35,0.63
						c0.03,0.11,0.05,0.23,0.09,0.34c0.04,0.09,0.1,0.16,0.17,0.18L42.5,18.5c-0.14,0-0.26-0.13-0.3-0.31c0,0,0,0,0,0
						c-0.06-0.26-0.18-0.5-0.35-0.63C41.75,17.47,41.63,17.44,41.52,17.46z"/>
				</g>
			</g>
			<g>
				<g>
					<path class="st4" d="M42.76,18.55c-0.03,0.02-0.07,0.02-0.1,0.01c-0.03-0.01-0.07-0.03-0.1-0.05
						c-0.03-0.03-0.06-0.06-0.08-0.09c-0.02-0.04-0.04-0.08-0.06-0.11c-0.03-0.08-0.05-0.15-0.07-0.22
						c-0.02-0.06-0.04-0.12-0.06-0.18c-0.05-0.11-0.11-0.21-0.17-0.29c-0.07-0.07-0.14-0.12-0.22-0.14
						c-0.08-0.02-0.16-0.01-0.23,0.04c-0.06,0.05-0.12,0.14-0.17,0.26c-0.02,0.06-0.05,0.13-0.07,0.19
						c-0.03,0.07-0.05,0.14-0.09,0.21c-0.03,0.07-0.07,0.14-0.12,0.19c-0.05,0.06-0.1,0.1-0.16,0.12c-0.02,0.01-0.04-0.01-0.04-0.03
						c0-0.02,0-0.04,0.01-0.05l0,0c0.08-0.09,0.12-0.21,0.16-0.34c0.02-0.07,0.03-0.13,0.05-0.21c0.02-0.07,0.03-0.15,0.05-0.23
						c0.02-0.08,0.05-0.16,0.09-0.23c0.04-0.08,0.09-0.15,0.15-0.2c0.12-0.11,0.26-0.15,0.4-0.13c0.07,0.01,0.13,0.04,0.2,0.07
						c0.06,0.04,0.12,0.09,0.17,0.15c0.1,0.12,0.17,0.27,0.22,0.43c0.03,0.08,0.04,0.16,0.06,0.24c0.01,0.08,0.02,0.15,0.03,0.21
						c0.01,0.06,0.02,0.11,0.05,0.16c0.02,0.05,0.05,0.09,0.1,0.11l0,0c0.02,0.01,0.03,0.03,0.02,0.06
						C42.78,18.53,42.77,18.54,42.76,18.55z"/>
				</g>
			</g>
			<g>
				<g class="st3">
					<g>
						<path class="st4" d="M41.73,21.19c0.22-0.41,0-0.64-0.3-0.88c-0.12-0.09-0.14-0.31-0.05-0.44c0.09-0.14,0.2-0.3,0.3-0.43
							c0.23-0.29-0.14-0.55-0.14-0.55l-0.06-0.05c0,0-0.34-0.35-0.41,0.07c-0.04,0.2-0.09,0.41-0.14,0.58
							c-0.05,0.17-0.2,0.24-0.31,0.13c-0.31-0.31-0.61-0.53-0.75-0.03c-0.11,0.41,0.04,1.23,0.55,1.67
							C40.93,21.7,41.5,21.61,41.73,21.19z"/>
					</g>
				</g>
				<g>
					<g>
						<path class="st11" d="M42.08,21.74c0.22-0.41,0-0.64-0.3-0.88c-0.12-0.09-0.14-0.31-0.05-0.44c0.09-0.14,0.2-0.3,0.3-0.43
							c0.23-0.29-0.14-0.55-0.14-0.55l-0.06-0.05c0,0-0.34-0.35-0.41,0.07c-0.04,0.2-0.09,0.41-0.14,0.58
							c-0.05,0.17-0.2,0.24-0.31,0.13c-0.31-0.31-0.61-0.53-0.75-0.03c-0.11,0.41,0.04,1.23,0.55,1.67
							C41.28,22.25,41.85,22.16,42.08,21.74z"/>
					</g>
				</g>
				<g class="st3">
					<g>
						<path class="st4" d="M42.14,19.91c0.07-0.24-0.21-0.43-0.21-0.43l-0.06-0.05c0,0-0.34-0.35-0.41,0.07
							c-0.04,0.2-0.09,0.41-0.14,0.58c-0.05,0.17-0.2,0.24-0.31,0.13c-0.31-0.31-0.61-0.53-0.75-0.03
							c-0.07,0.26-0.04,0.68,0.12,1.07c-0.06-0.27-0.06-0.53-0.01-0.72c0.14-0.51,0.43-0.28,0.75,0.03
							c0.11,0.11,0.26,0.04,0.31-0.13c0.05-0.17,0.1-0.39,0.14-0.58c0.08-0.42,0.41-0.07,0.41-0.07l0.06,0.05
							C42.04,19.83,42.09,19.86,42.14,19.91z"/>
					</g>
				</g>
				<g class="st6">
					<g>
						<path class="st12" d="M42.06,21.14c-0.01,0.07-0.04,0.16-0.09,0.25c-0.23,0.42-0.79,0.51-1.31,0.07
							c-0.21-0.18-0.36-0.42-0.45-0.67c0.07,0.37,0.24,0.77,0.55,1.03c0.51,0.44,1.08,0.35,1.31-0.07
							C42.21,21.49,42.18,21.3,42.06,21.14z"/>
					</g>
				</g>
				<g>
					<g>
						<path class="st4" d="M41.58,19.1c0.14,0,0.27,0.12,0.31,0.16l0.05,0.04c0.05,0.04,0.25,0.19,0.27,0.44
							c0.01,0.09,0,0.23-0.11,0.36c-0.09,0.11-0.19,0.25-0.3,0.42c-0.02,0.03-0.03,0.07-0.02,0.11c0,0.02,0.01,0.07,0.05,0.09
							c0.19,0.15,0.4,0.33,0.44,0.61c0.02,0.16-0.01,0.33-0.11,0.5v0c-0.28,0.52-0.92,0.57-1.45,0.11c-0.58-0.5-0.72-1.4-0.59-1.86
							c0.06-0.2,0.14-0.33,0.25-0.38c0.21-0.09,0.44,0.11,0.66,0.33c0.02,0.02,0.05,0.03,0.08,0.02c0.03-0.01,0.05-0.04,0.06-0.08
							c0.06-0.21,0.11-0.41,0.13-0.57c0.04-0.19,0.12-0.27,0.18-0.3C41.52,19.1,41.55,19.1,41.58,19.1z M41.99,21.65
							c0.08-0.15,0.07-0.22,0.06-0.25c-0.02-0.14-0.18-0.28-0.33-0.4c-0.09-0.07-0.14-0.18-0.16-0.32
							c-0.02-0.13,0.01-0.27,0.08-0.37c0.12-0.18,0.22-0.33,0.31-0.45c0.02-0.02,0.04-0.06,0.04-0.08c-0.01-0.06-0.1-0.16-0.16-0.21
							c0,0-0.01,0-0.01-0.01l-0.06-0.05c0,0-0.01,0-0.01-0.01c-0.05-0.06-0.16-0.12-0.2-0.1c-0.02,0.01-0.03,0.05-0.04,0.08
							c-0.03,0.17-0.08,0.37-0.14,0.6c-0.04,0.13-0.11,0.22-0.2,0.26c-0.09,0.04-0.19,0.02-0.27-0.06
							c-0.11-0.11-0.35-0.34-0.47-0.29c-0.04,0.02-0.08,0.08-0.11,0.19c-0.1,0.35,0.05,1.09,0.5,1.48
							C41.31,22.09,41.8,21.98,41.99,21.65L41.99,21.65z"/>
					</g>
				</g>
			</g>
			<g>
				<g class="st3">
					<g>
						<path class="st4" d="M44.18,13.92c0.3-0.3,0.14-0.61-0.1-0.96c-0.09-0.13-0.07-0.35,0.04-0.45c0.11-0.09,0.25-0.21,0.38-0.29
							c0.28-0.18-0.02-0.58-0.02-0.58l-0.04-0.07c0,0-0.25-0.47-0.41-0.1c-0.08,0.17-0.17,0.35-0.25,0.5
							c-0.08,0.15-0.24,0.15-0.32,0c-0.24-0.42-0.47-0.76-0.71-0.33c-0.19,0.35-0.22,1.19,0.17,1.82S43.88,14.22,44.18,13.92z"/>
					</g>
				</g>
				<g>
					<g>
						<path class="st11" d="M44.39,14.27c0.3-0.3,0.14-0.61-0.1-0.96c-0.09-0.13-0.07-0.35,0.04-0.45c0.11-0.09,0.25-0.21,0.38-0.29
							c0.28-0.18-0.02-0.58-0.02-0.58l-0.04-0.07c0,0-0.25-0.47-0.41-0.1c-0.08,0.17-0.17,0.35-0.25,0.5
							c-0.08,0.15-0.24,0.15-0.32,0c-0.24-0.42-0.47-0.76-0.71-0.33c-0.19,0.35-0.22,1.19,0.17,1.82
							C43.52,14.43,44.08,14.58,44.39,14.27z"/>
					</g>
				</g>
				<g class="st3">
					<g>
						<path class="st4" d="M44.83,12.54c0.12-0.2-0.11-0.5-0.11-0.5l-0.04-0.07c0,0-0.25-0.47-0.41-0.1
							c-0.08,0.17-0.17,0.35-0.25,0.5c-0.08,0.15-0.24,0.15-0.32,0c-0.24-0.42-0.47-0.76-0.71-0.33c-0.12,0.22-0.18,0.63-0.1,1.07
							c0-0.29,0.05-0.54,0.14-0.69c0.24-0.43,0.47-0.09,0.71,0.33c0.08,0.15,0.24,0.15,0.32,0c0.08-0.15,0.18-0.33,0.25-0.5
							c0.16-0.36,0.41,0.1,0.41,0.1l0.04,0.07C44.76,12.43,44.8,12.47,44.83,12.54z"/>
					</g>
				</g>
				<g class="st6">
					<g>
						<path class="st12" d="M44.5,13.68c-0.03,0.07-0.07,0.13-0.13,0.2c-0.31,0.31-0.87,0.16-1.26-0.47
							c-0.16-0.26-0.25-0.55-0.29-0.83c-0.01,0.38,0.07,0.83,0.31,1.21c0.4,0.63,0.96,0.78,1.26,0.47
							C44.58,14.08,44.58,13.89,44.5,13.68z"/>
					</g>
				</g>
				<g>
					<g>
						<path class="st4" d="M44.38,11.52c0.17,0,0.31,0.24,0.35,0.3l0.04,0.06c0.04,0.06,0.2,0.29,0.17,0.54
							c-0.01,0.09-0.05,0.21-0.18,0.3c-0.1,0.07-0.23,0.16-0.37,0.28c-0.02,0.02-0.04,0.06-0.04,0.1c0,0.02,0,0.07,0.03,0.11
							c0.15,0.22,0.31,0.48,0.29,0.76c-0.01,0.16-0.08,0.31-0.21,0.44l0,0c-0.38,0.38-1,0.16-1.41-0.49
							c-0.45-0.72-0.39-1.63-0.18-2.02c0.1-0.17,0.2-0.26,0.32-0.26c0,0,0,0,0,0c0.22,0,0.4,0.29,0.56,0.59
							c0.02,0.03,0.04,0.05,0.07,0.05c0,0,0,0,0,0c0.03,0,0.06-0.02,0.07-0.05c0.1-0.18,0.19-0.35,0.25-0.49
							c0.07-0.17,0.17-0.21,0.23-0.21C44.38,11.52,44.38,11.52,44.38,11.52z M44.01,14.27c0.12,0,0.23-0.04,0.32-0.13l0,0
							c0.11-0.11,0.11-0.19,0.11-0.21c0.01-0.14-0.11-0.34-0.23-0.51c-0.07-0.1-0.1-0.23-0.09-0.37c0.01-0.14,0.07-0.25,0.15-0.32
							c0.15-0.12,0.28-0.22,0.39-0.3c0.02-0.01,0.05-0.04,0.05-0.06c0.01-0.06-0.06-0.2-0.11-0.26c0,0,0-0.01-0.01-0.01l-0.04-0.07
							c0,0,0-0.01-0.01-0.01c-0.04-0.08-0.12-0.18-0.17-0.18c-0.02,0-0.04,0.04-0.05,0.06c-0.07,0.15-0.15,0.32-0.26,0.51
							c-0.06,0.11-0.15,0.17-0.25,0.17c0,0,0,0,0,0c-0.1,0-0.19-0.06-0.25-0.17c-0.09-0.15-0.26-0.47-0.39-0.47c0,0,0,0,0,0
							c-0.04,0-0.09,0.05-0.14,0.14c-0.17,0.3-0.18,1.06,0.17,1.62C43.46,14.09,43.76,14.27,44.01,14.27z M44.39,14.27L44.39,14.27
							L44.39,14.27z"/>
					</g>
				</g>
			</g>
			<g class="st3">
				<g>
					<ellipse class="st4" cx="44.87" cy="15.36" rx="0.12" ry="0.24"/>
				</g>
			</g>
			<g class="st3">
				<g>
					<ellipse class="st4" cx="41.6" cy="13.29" rx="0.12" ry="0.24"/>
				</g>
			</g>
			<g class="st3">
				<g>
					<ellipse class="st4" cx="42.88" cy="20.07" rx="0.12" ry="0.24"/>
				</g>
			</g>
			<g class="st3">
				<g>
					<ellipse class="st4" cx="46.88" cy="20.27" rx="0.12" ry="0.24"/>
				</g>
			</g>
			<g class="st3">
				<g>
					<ellipse class="st4" cx="44.39" cy="15.79" rx="0.06" ry="0.13"/>
				</g>
			</g>
			<g class="st3">
				<g>
					<ellipse class="st4" cx="46.76" cy="19.48" rx="0.06" ry="0.13"/>
				</g>
			</g>
			<g class="st3">
				<g>
					<ellipse class="st4" cx="43.17" cy="21.14" rx="0.06" ry="0.13"/>
				</g>
			</g>
			<g class="st3">
				<g>
					<ellipse class="st4" cx="41.93" cy="13.7" rx="0.06" ry="0.13"/>
				</g>
			</g>
			<g class="st3">
				<g>
					<ellipse class="st4" cx="44.77" cy="16.27" rx="0.11" ry="0.22"/>
				</g>
			</g>
			<g>
				<g>
					<g>
						<path class="st13" d="M45.78,17.49c-0.21-0.41-0.51-0.68-0.9-0.77l0.23-0.54c0.37,0.08,0.67,0.34,0.9,0.77L45.78,17.49z"/>
					</g>
				</g>
				<g class="st6">
					<g>
						<path class="st12" d="M46.02,16.95l-0.23,0.54c-0.04-0.07-0.08-0.14-0.12-0.21l0.15-0.33c-0.19-0.36-0.42-0.59-0.71-0.71
							l0.03-0.06C45.49,16.26,45.79,16.52,46.02,16.95z"/>
					</g>
				</g>
				<g>
					<g>
						<path class="st4" d="M45.12,16.04c0.01,0,0.01,0,0.02,0c0.4,0.09,0.72,0.37,0.96,0.82c0.02,0.04,0.02,0.1,0,0.15l-0.23,0.54
							c-0.02,0.04-0.05,0.06-0.08,0.06c-0.03,0-0.06-0.02-0.08-0.06c-0.2-0.4-0.48-0.63-0.84-0.72c-0.03-0.01-0.06-0.04-0.07-0.08
							c-0.01-0.04-0.01-0.09,0.01-0.13l0.23-0.54C45.05,16.07,45.09,16.04,45.12,16.04z M45.9,16.95c-0.19-0.34-0.43-0.54-0.74-0.63
							l-0.13,0.3c0.3,0.11,0.54,0.32,0.74,0.63L45.9,16.95z"/>
					</g>
				</g>
			</g>
			<g>
				<g>
					<g>
						<path class="st13" d="M43.9,22.9c-0.35-0.14-0.7-0.09-1.05,0.18l-0.05-0.63c0.33-0.26,0.68-0.32,1.05-0.18L43.9,22.9z"/>
					</g>
				</g>
				<g class="st6">
					<g>
						<path class="st12" d="M43.84,22.27l0.05,0.63c-0.06-0.02-0.12-0.04-0.19-0.06l-0.03-0.39c-0.3-0.12-0.59-0.1-0.87,0.06
							l-0.01-0.07C43.13,22.19,43.48,22.13,43.84,22.27z"/>
					</g>
				</g>
				<g>
					<g>
						<path class="st4" d="M43.46,22.06c0.13,0,0.27,0.03,0.41,0.08c0.04,0.01,0.06,0.06,0.07,0.11l0.05,0.63
							c0,0.04-0.01,0.09-0.03,0.12s-0.06,0.04-0.09,0.03c-0.33-0.13-0.65-0.08-0.97,0.16c-0.03,0.02-0.06,0.02-0.09,0
							c-0.03-0.02-0.05-0.06-0.05-0.1l-0.05-0.63c0-0.05,0.01-0.11,0.05-0.13C42.98,22.15,43.22,22.06,43.46,22.06z M43.76,22.38
							c-0.3-0.1-0.58-0.05-0.86,0.14l0.03,0.35c0.28-0.17,0.57-0.22,0.86-0.15L43.76,22.38z"/>
					</g>
				</g>
			</g>
			<g>
				<g>
					<g>
						<path class="st13" d="M42.06,14.54c-0.36,0.02-0.68,0.22-0.95,0.63l-0.19-0.57c0.26-0.39,0.57-0.6,0.95-0.63L42.06,14.54z"/>
					</g>
				</g>
				<g class="st6">
					<g>
						<path class="st12" d="M41.87,13.97l0.19,0.57c-0.06,0-0.13,0.01-0.19,0.03l-0.12-0.36c-0.31,0.02-0.59,0.17-0.82,0.45
							l-0.02-0.06C41.17,14.21,41.49,14,41.87,13.97z"/>
					</g>
				</g>
				<g>
					<g>
						<path class="st4" d="M41.87,13.83c0.04,0,0.07,0.03,0.09,0.08l0.19,0.57c0.01,0.04,0.01,0.09,0,0.13
							c-0.02,0.04-0.05,0.06-0.08,0.06c-0.35,0.02-0.64,0.21-0.89,0.59c-0.02,0.03-0.05,0.05-0.08,0.04
							c-0.03-0.01-0.06-0.04-0.07-0.08l-0.19-0.57c-0.02-0.05-0.01-0.11,0.02-0.15C41.12,14.09,41.46,13.86,41.87,13.83
							C41.86,13.83,41.87,13.83,41.87,13.83z M41.91,14.42l-0.11-0.31c-0.31,0.04-0.56,0.21-0.78,0.52l0.11,0.32
							C41.36,14.65,41.62,14.48,41.91,14.42z"/>
					</g>
				</g>
			</g>
			<g class="st14">
				<g>
					<path class="st7" d="M41.72,24.99c-0.21-0.16-0.47-0.17-0.7-0.13c-0.12,0.02-0.26,0.07-0.31,0.22c-0.05,0.14,0,0.31,0.08,0.42
						s0.19,0.15,0.3,0.19c0.16,0.05,0.32,0.09,0.48,0.12c0.08,0.01,0.17,0.02,0.25,0.03c0.05,0,0.18,0.04,0.22,0
						c0.08-0.08,0-0.36-0.04-0.46C41.94,25.21,41.84,25.08,41.72,24.99z"/>
				</g>
			</g>
			<g class="st14">
				<g>
					<path class="st7" d="M40.43,25.32c0.02-0.1-0.03-0.2-0.08-0.27c-0.08-0.11-0.18-0.19-0.28-0.24c-0.05-0.02-0.1-0.03-0.14,0
						c-0.04,0.03-0.06,0.09-0.07,0.15c-0.03,0.21,0.08,0.4,0.22,0.48C40.17,25.49,40.39,25.5,40.43,25.32z"/>
				</g>
			</g>
		</g>
	</g>
	<g>
		<path class="st0" d="M0.89,32.09c-0.08-0.07-0.21-0.07-0.4,0c-0.15,0.02-0.28-0.1-0.38-0.35C0.04,31.53,0,31.25,0,30.92
			c0-0.32,0.04-0.59,0.11-0.83c0.1-0.23,0.23-0.33,0.38-0.29c0.42,0.09,0.93,0.14,1.54,0.16c0.66,0,1.1-0.05,1.33-0.16
			c0.18-0.05,0.32,0.04,0.44,0.29c0.1,0.21,0.15,0.48,0.15,0.8c0,0.34-0.05,0.62-0.15,0.85c-0.11,0.25-0.26,0.36-0.44,0.35
			L3.3,32.06c-0.15,0-0.27,0.03-0.34,0.08c-0.11,0.07-0.17,0.22-0.17,0.45v5.51h3.66v-5.59c0-0.2-0.05-0.33-0.15-0.4
			c-0.06-0.04-0.16-0.05-0.3-0.05l-0.04,0.03c-0.19,0.04-0.34-0.07-0.46-0.32c-0.1-0.23-0.15-0.51-0.15-0.83
			c0-0.34,0.05-0.62,0.15-0.85c0.11-0.25,0.27-0.35,0.46-0.29c0.48,0.07,0.93,0.11,1.35,0.11c0.43,0,0.87-0.04,1.33-0.11
			c0.18-0.05,0.32,0.04,0.44,0.29c0.09,0.23,0.13,0.52,0.13,0.85c0,0.32-0.04,0.6-0.13,0.83c-0.11,0.25-0.26,0.36-0.44,0.32
			l-0.09-0.03c-0.14,0-0.23,0.02-0.27,0.05c-0.05,0.05-0.08,0.19-0.08,0.4V46.9c0,0.2,0.03,0.3,0.09,0.32
			c0.05,0.02,0.16-0.01,0.34-0.08c0.18-0.05,0.32,0.04,0.44,0.29c0.09,0.23,0.13,0.52,0.13,0.88c0,0.36-0.04,0.64-0.13,0.85
			c-0.11,0.25-0.26,0.34-0.44,0.27c-0.28-0.07-0.7-0.11-1.25-0.11c-0.57,0-1.04,0.04-1.42,0.11c-0.19,0.04-0.34-0.07-0.46-0.32
			c-0.1-0.23-0.15-0.52-0.15-0.88c0-0.34,0.05-0.61,0.15-0.83c0.11-0.25,0.27-0.34,0.46-0.27c0.11,0.07,0.21,0.1,0.3,0.08
			c0.13-0.04,0.19-0.14,0.19-0.32v-6.5H2.79v6.39c0,0.23,0.06,0.36,0.19,0.4c0.09,0.02,0.21,0,0.38-0.05
			c0.18-0.04,0.32,0.07,0.44,0.32c0.1,0.21,0.15,0.48,0.15,0.8c0,0.32-0.05,0.6-0.15,0.83c-0.11,0.25-0.26,0.36-0.44,0.35
			c-0.37-0.07-0.82-0.11-1.35-0.11c-0.49,0-1,0.04-1.52,0.11c-0.15,0.04-0.28-0.07-0.38-0.32C0.04,48.87,0,48.59,0,48.25
			c0-0.34,0.04-0.61,0.11-0.83c0.1-0.25,0.23-0.35,0.38-0.29h0.04c0.19,0.05,0.32,0.07,0.38,0.05c0.09-0.04,0.13-0.17,0.13-0.4V32.6
			C1.04,32.33,0.99,32.16,0.89,32.09z"/>
		<path class="st0" d="M17.6,32.41c0.66,1.79,0.99,4.21,0.99,7.24c0,3-0.33,5.4-0.99,7.19c-0.75,2.02-1.83,3.04-3.26,3.04
			c-1.43,0-2.52-1.01-3.26-3.04c-0.66-1.81-0.99-4.21-0.99-7.19c0-3.02,0.33-5.43,0.99-7.24c0.75-2.02,1.83-3.04,3.26-3.04
			C15.77,29.37,16.86,30.38,17.6,32.41z M12.44,33.98c-0.35,1.35-0.53,3.23-0.53,5.65c0,2.4,0.18,4.27,0.53,5.62
			c0.4,1.56,1.04,2.34,1.9,2.34c0.86,0,1.49-0.78,1.9-2.34c0.35-1.33,0.53-3.2,0.53-5.62c0-2.43-0.18-4.31-0.53-5.65
			c-0.4-1.54-1.04-2.32-1.9-2.32C13.48,31.66,12.85,32.44,12.44,33.98z"/>
		<path class="st0" d="M20.3,32.17c-0.06-0.05-0.22-0.06-0.47-0.03c-0.18,0.02-0.31-0.1-0.4-0.35c-0.09-0.21-0.13-0.48-0.13-0.8
			c0-0.34,0.04-0.61,0.13-0.83c0.09-0.25,0.22-0.35,0.4-0.32c0.48,0.07,0.97,0.11,1.48,0.11c0.47-0.02,0.96-0.05,1.48-0.11
			c0.2-0.09,0.37-0.01,0.51,0.24c0.11,0.2,0.17,0.47,0.17,0.83c0,0.34-0.06,0.62-0.17,0.85c-0.14,0.27-0.31,0.39-0.51,0.37
			c-0.25-0.02-0.42,0-0.49,0.05c-0.09,0.07-0.13,0.25-0.13,0.53v12.12c0,0.8,0.16,1.46,0.49,1.97c0.34,0.52,0.82,0.77,1.42,0.77
			c0.59,0,1.06-0.26,1.38-0.77c0.33-0.5,0.49-1.15,0.49-1.97V32.73c0-0.35-0.05-0.57-0.15-0.64c-0.09-0.07-0.3-0.05-0.63,0.05
			c-0.18,0.02-0.31-0.1-0.4-0.35c-0.09-0.23-0.13-0.51-0.13-0.85c0-0.34,0.04-0.61,0.13-0.83c0.09-0.25,0.22-0.35,0.4-0.29
			c0.28,0.07,0.71,0.11,1.31,0.11c0.68,0.02,1.27-0.02,1.76-0.11c0.18-0.07,0.32,0.01,0.44,0.24c0.1,0.21,0.15,0.49,0.15,0.83
			c0,0.36-0.05,0.65-0.15,0.88c-0.11,0.25-0.26,0.36-0.44,0.35l-0.11-0.03c-0.18,0-0.29,0.03-0.34,0.08
			c-0.06,0.07-0.09,0.26-0.09,0.56v12.12c0,1.69-0.36,2.97-1.08,3.86c-0.63,0.78-1.49,1.17-2.56,1.17c-1.08,0-1.93-0.39-2.58-1.17
			c-0.71-0.89-1.06-2.17-1.06-3.86V32.73C20.41,32.43,20.37,32.24,20.3,32.17z"/>
		<path class="st0" d="M32.06,32.75c-0.38,0.64-0.57,1.45-0.57,2.42c0,1.15,0.25,2.02,0.76,2.61c0.35,0.43,0.87,0.71,1.54,0.85
			l0.27,0.05c0.64,0.14,1.12,0.27,1.42,0.37c0.51,0.2,0.92,0.46,1.25,0.8c0.39,0.41,0.69,0.93,0.89,1.57
			c0.23,0.75,0.34,1.67,0.34,2.77c0,1.74-0.38,3.12-1.14,4.15c-0.76,1.03-1.8,1.54-3.11,1.54c-0.22,0-0.46-0.04-0.72-0.13
			c-0.33-0.09-0.61-0.22-0.83-0.4l-0.02-0.03c-0.37-0.27-0.6-0.41-0.7-0.43c-0.15-0.04-0.24,0.1-0.27,0.4
			c-0.03,0.28-0.14,0.48-0.34,0.59c-0.18,0.11-0.38,0.12-0.61,0.05c-0.24-0.07-0.42-0.2-0.55-0.4c-0.15-0.21-0.2-0.45-0.13-0.72
			c0.13-0.6,0.17-1.37,0.13-2.29c-0.03-0.83-0.11-1.64-0.25-2.42c-0.08-0.41-0.03-0.74,0.15-0.99c0.15-0.21,0.36-0.32,0.63-0.32
			c0.27-0.02,0.49,0.06,0.68,0.24c0.2,0.21,0.3,0.5,0.28,0.85c-0.09,1.33,0.15,2.31,0.72,2.93c0.46,0.52,1.07,0.77,1.84,0.77
			c0.73,0,1.31-0.3,1.73-0.91c0.46-0.64,0.68-1.55,0.68-2.74c0-0.94-0.17-1.64-0.51-2.1c-0.35-0.48-0.96-0.79-1.8-0.93
			c-1.16-0.21-2.04-0.6-2.64-1.17c-1.01-0.96-1.52-2.52-1.52-4.69c0-1.7,0.35-3.07,1.06-4.1c0.73-1.05,1.74-1.57,3.02-1.57
			c0.25,0,0.59,0.06,1.02,0.19c0.46,0.14,0.78,0.29,0.99,0.45c0.25,0.21,0.42,0.31,0.49,0.29c0.05,0,0.09-0.09,0.11-0.27l0.04-0.13
			c0.01-0.23,0.13-0.39,0.36-0.48c0.21-0.09,0.45-0.1,0.7-0.03c0.28,0.09,0.48,0.23,0.61,0.43c0.15,0.23,0.17,0.52,0.06,0.85
			c-0.19,0.53-0.32,1.3-0.38,2.32c-0.06,0.91-0.06,1.69,0.02,2.34c0.05,0.37-0.02,0.67-0.21,0.91c-0.15,0.2-0.36,0.29-0.63,0.29
			c-0.27,0-0.49-0.1-0.66-0.29c-0.19-0.23-0.27-0.53-0.25-0.91c0.08-1.24-0.13-2.19-0.61-2.85c-0.42-0.55-0.94-0.83-1.57-0.83
			C33.08,31.69,32.49,32.05,32.06,32.75z"/>
		<path class="st0" d="M39.95,32.22c-0.05-0.09-0.2-0.13-0.44-0.13l-0.08,0.03c-0.19,0.02-0.34-0.09-0.44-0.32
			c-0.09-0.21-0.13-0.48-0.13-0.8c0-0.32,0.04-0.59,0.13-0.83c0.1-0.25,0.25-0.35,0.44-0.32c0.56,0.05,1.58,0.08,3.07,0.08
			c1.49,0,2.92-0.03,4.29-0.08c0.52-0.05,0.83,0.04,0.95,0.27c0.08,0.14,0.08,0.49,0.02,1.04v0.03c-0.1,0.73-0.16,1.51-0.17,2.34
			c-0.01,0.78,0.01,1.44,0.08,1.97c0.03,0.23-0.06,0.42-0.25,0.56c-0.18,0.14-0.39,0.21-0.64,0.21c-0.27,0-0.48-0.07-0.64-0.21
			c-0.19-0.14-0.27-0.33-0.23-0.56c0.05-0.51,0.08-1.11,0.08-1.78c-0.01-0.69-0.05-1.22-0.11-1.6h-4.06v6.02h1.71
			c0.11,0,0.18-0.12,0.19-0.37c0-0.16-0.02-0.5-0.06-1.01l-0.04-0.45c-0.04-0.2,0.03-0.35,0.21-0.45c0.16-0.11,0.37-0.16,0.61-0.16
			c0.24,0,0.44,0.05,0.59,0.16c0.16,0.11,0.23,0.26,0.21,0.45c-0.08,0.57-0.11,1.54-0.11,2.9c-0.01,1.35,0.03,2.33,0.11,2.93
			c0.03,0.27-0.04,0.49-0.21,0.67c-0.15,0.14-0.35,0.21-0.59,0.21c-0.24,0-0.44-0.07-0.61-0.21c-0.18-0.18-0.25-0.4-0.21-0.67
			l0.04-0.59c0.04-0.44,0.06-0.73,0.06-0.85c-0.01-0.18-0.08-0.27-0.19-0.27h-1.71v6.71h4.27c0.04-0.43,0.06-0.88,0.06-1.36
			c0-0.53-0.03-1.06-0.08-1.57c-0.04-0.27,0.04-0.48,0.23-0.64c0.15-0.12,0.35-0.19,0.61-0.19c0.24,0,0.44,0.06,0.61,0.19
			c0.19,0.16,0.28,0.37,0.27,0.64c-0.04,0.69-0.06,1.31-0.06,1.86c0.01,0.76,0.06,1.37,0.15,1.81c0.1,0.48,0.1,0.86,0,1.15
			c-0.09,0.27-0.25,0.4-0.49,0.4c-1.64-0.07-3.24-0.11-4.78-0.11c-1.54,0-2.59,0.04-3.15,0.11c-0.19,0.04-0.34-0.08-0.44-0.35
			c-0.09-0.23-0.13-0.51-0.13-0.85c0-0.35,0.04-0.64,0.13-0.85c0.1-0.23,0.25-0.31,0.44-0.24c0.25,0.09,0.42,0.04,0.51-0.13
			c0.08-0.16,0.11-0.51,0.11-1.04V33.05C40.06,32.59,40.03,32.31,39.95,32.22z"/>
	</g>
</g>
</svg>
